<mxfile host="app.diagrams.net" agent="Mozilla/5.0 (Windows NT 10.0; Win64; x64) AppleWebKit/537.36 (KHTML, like Gecko) Chrome/131.0.0.0 Safari/537.36 Edg/131.0.0.0" version="25.0.3">
  <diagram name="Page-1" id="9m0qiTePalxhBs6iLLS8">
    <mxGraphModel dx="872" dy="477" grid="1" gridSize="10" guides="1" tooltips="1" connect="1" arrows="1" fold="1" page="1" pageScale="1" pageWidth="1100" pageHeight="850" math="0" shadow="0">
      <root>
        <mxCell id="0" />
        <mxCell id="1" parent="0" />
        <mxCell id="q-qKCyOHFfv3Y1E1018K-7" style="edgeStyle=orthogonalEdgeStyle;rounded=0;orthogonalLoop=1;jettySize=auto;html=1;curved=1;" edge="1" parent="1" source="q-qKCyOHFfv3Y1E1018K-1" target="q-qKCyOHFfv3Y1E1018K-4">
          <mxGeometry relative="1" as="geometry" />
        </mxCell>
        <mxCell id="q-qKCyOHFfv3Y1E1018K-1" value="" style="shape=image;verticalLabelPosition=bottom;labelBackgroundColor=default;verticalAlign=top;aspect=fixed;imageAspect=0;image=https://th.bing.com/th?id=OIP.8TQLcmNHgW5_bACuScjQEQHaHa&amp;w=250&amp;h=250&amp;c=8&amp;rs=1&amp;qlt=90&amp;r=0&amp;o=6&amp;pid=3.1&amp;rm=2;" vertex="1" parent="1">
          <mxGeometry x="290" y="120" width="100" height="100" as="geometry" />
        </mxCell>
        <mxCell id="q-qKCyOHFfv3Y1E1018K-8" style="edgeStyle=orthogonalEdgeStyle;rounded=0;orthogonalLoop=1;jettySize=auto;html=1;exitX=0.5;exitY=1;exitDx=0;exitDy=0;entryX=0.5;entryY=0;entryDx=0;entryDy=0;" edge="1" parent="1" source="q-qKCyOHFfv3Y1E1018K-4" target="q-qKCyOHFfv3Y1E1018K-5">
          <mxGeometry relative="1" as="geometry" />
        </mxCell>
        <mxCell id="q-qKCyOHFfv3Y1E1018K-4" value="" style="shape=image;verticalLabelPosition=bottom;labelBackgroundColor=default;verticalAlign=top;aspect=fixed;imageAspect=0;image=https://th.bing.com/th?id=OIP.nYIBtYVZp6VAiLKgvplzoQHaH0&amp;w=243&amp;h=256&amp;c=8&amp;rs=1&amp;qlt=90&amp;r=0&amp;o=6&amp;pid=3.1&amp;rm=2;clipPath=inset(8.98% 21.19% 36.33% 21.19%);" vertex="1" parent="1">
          <mxGeometry x="530" y="120" width="100" height="100" as="geometry" />
        </mxCell>
        <mxCell id="q-qKCyOHFfv3Y1E1018K-9" style="edgeStyle=orthogonalEdgeStyle;rounded=0;orthogonalLoop=1;jettySize=auto;html=1;exitX=0;exitY=0.5;exitDx=0;exitDy=0;" edge="1" parent="1" source="q-qKCyOHFfv3Y1E1018K-5" target="q-qKCyOHFfv3Y1E1018K-6">
          <mxGeometry relative="1" as="geometry" />
        </mxCell>
        <mxCell id="q-qKCyOHFfv3Y1E1018K-5" value="" style="shape=image;verticalLabelPosition=bottom;labelBackgroundColor=default;verticalAlign=top;aspect=fixed;imageAspect=0;image=data:image/jpeg,/9j/4AAQSkZJRgABAQEAYABgAAD/2wBDAAoHBwkHBgoJCAkLCwoMDxkQDw4ODx4WFxIZJCAmJSMgIyIoLTkwKCo2KyIjMkQyNjs9QEBAJjBGS0U+Sjk/QD3/2wBDAQsLCw8NDx0QEB09KSMpPT09PT09PT09PT09PT09PT09PT09PT09PT09PT09PT09PT09PT09PT09PT09PT09PT3/wAARCAC/AL8DASIAAhEBAxEB/8QAHwAAAQUBAQEBAQEAAAAAAAAAAAECAwQFBgcICQoL/8QAtRAAAgEDAwIEAwUFBAQAAAF9AQIDAAQRBRIhMUEGE1FhByJxFDKBkaEII0KxwRVS0fAkM2JyggkKFhcYGRolJicoKSo0NTY3ODk6Q0RFRkdISUpTVFVWV1hZWmNkZWZnaGlqc3R1dnd4eXqDhIWGh4iJipKTlJWWl5iZmqKjpKWmp6ipqrKztLW2t7i5usLDxMXGx8jJytLT1NXW19jZ2uHi4+Tl5ufo6erx8vP09fb3+Pn6/8QAHwEAAwEBAQEBAQEBAQAAAAAAAAECAwQFBgcICQoL/8QAtREAAgECBAQDBAcFBAQAAQJ3AAECAxEEBSExBhJBUQdhcRMiMoEIFEKRobHBCSMzUvAVYnLRChYkNOEl8RcYGRomJygpKjU2Nzg5OkNERUZHSElKU1RVVldYWVpjZGVmZ2hpanN0dXZ3eHl6goOEhYaHiImKkpOUlZaXmJmaoqOkpaanqKmqsrO0tba3uLm6wsPExcbHyMnK0tPU1dbX2Nna4uPk5ebn6Onq8vP09fb3+Pn6/9oADAMBAAIRAxEAPwD2SiiigAqK6uY7O1muJiRFCjSOQOgAyf5VLWd4i/5FrVf+vOb/ANANAHjD/Ebxx4juri60KSKyslfakQSI49AWcEk4xnoKP+El+Jv/AEEo/wDv3b//ABNUPh9/yA5/+vg/+grWj4g12XRfI8mxkuvNzkgkBcduAea4Z4ip7Rwike3RwGH+rqtUb/r5Df8AhJfib/0Eo/8Av3b/APxNH/CS/E3/AKCUf/fu3/8AiayP+E6u/wDoCv8A99t/8TR/wnV3/wBAV/8Avtv/AImq58R2X9fMj2OX/wA0vuf+Rr/8JL8Tf+glH/37t/8A4mj/AISX4m/9BKP/AL92/wD8TWR/wnV3/wBAV/8Avtv/AImhfHN2WA/sWQ5PQO2f/QaOfEdl/XzD2GX/AMz/AB/yNf8A4SX4m/8AQSj/AO/dv/8AE0f8JL8Tf+glH/37t/8A4mtpTuUEggkZweoorn+u1PI7v7Hw/d/18jF/4SX4m/8AQSj/AO/dv/8AE0f8JL8Tf+glH/37t/8A4mtqij67U8g/sfD93/XyMX/hJfib/wBBKP8A792//wATR/wkvxN/6CUf/fu3/wDia2qzPEWpS6Tos11bhDKpVV3jIGT1xVRxdWTUVYiplWGpwc5N2X9diD/hJfib/wBBKP8A792//wATR/wkvxN/6CUf/fu3/wDiamTVJv8AhFv7SKIZhamXbg7d2P5UnhzU5tU0WO6uVXzSzA7RgHFU8TVSbstHYhZfhXJQTd2r/L7iL/hJfib/ANBKP/v3b/8AxNT6b8SvFvh/WrNfFMkd1YXL7W/dxhkGQCylAORkHB6/rVTwprdzrdtcyXSxho5AF2DAwRnH4Vm/ED/mFf8AXR//AGWrhXqe19nKxhWwVBYZ16bfz9bH0dRQaK7TxgooooAKKKKACs7xF/yLWq/9ec3/AKAa0azvEX/Itap/15zf+gGgD538IeINO0nSpYb2Z0kaYuAIy3G0Dt9K3v8AhNtFHS6l/wC/LVp/B/wxo2ueF7qfU9MtruZb1o1eVckLsQ4/Mmu8b4f+F1bB0Gx/74P+Nc08LCcnJno0szrUoKEUrL+u55h/wm2i/wDP1L/36aj/AITbRf8An6l/79NXp3/CA+Fv+gDY/wDfB/xo/wCEB8Lf9AGx/wC+D/jU/U6fmaf2xX7L+vmeZf8ACbaL/wA/Uv8A36ak/wCE20X/AJ+pf+/TV6d/wgPhb/oA2P8A3wf8aP8AhAfC3/QBsf8Avg/40fU6fmH9sV+y/r5nmP8Awmuif8/Mn/flqP8AhNdE/wCfmT/vy1enf8ID4W/6ANj/AN8H/Gj/AIQHwt/0AbH/AL4P+NH1On5h/bGI7L+vmeY/8Jron/PzJ/35aj/hNdE/5+ZP+/LV6d/wgPhb/oA2P/fB/wAaP+EB8Lf9AGx/74P+NH1On5h/bGI7L+vmeY/8Jron/PzJ/wB+WpsnjDQZo2jlmZ0YYKtASD9RXqH/AAgPhb/oA2P/AHwf8aP+EB8Lf9AGx/74P+NH1On3YPN676L7v+CeX/8ACZaFs2ee+3GNvkHGPTFJH4w0GGNY4pmjReAqwEAfQV6j/wAID4W/6ANj/wB8H/Gj/hAfC3/QBsf++D/jT+p0+7F/a9fsvu/4J5dF4v0CAERSmMMSxCW5GT3PArA8W65Y6w2nixlZzE7FsoVxnbjr9K9yT4feF3OBoNh/3wf8a81+MHh7StCGhnStPgtDNJKJPKXG7Hl4z+ZqoYaEJcyvczrZlVq03TklZnupooPWiug88KKKKACoLy8t9PtZLm8nit4Ixl5JXCqv1JqevBvEF9d/E7xtcWaXDxaHpzkDYeuDjd7sxzjPQfjlpOTshSkoq7PQLn4x+EbeUot9NPj+KK3fH5nFZur/ABh8L3ujX1tDNd+ZNbyRpm3IGSpA7+9UbXwboVvEI49KgkA/ikUux+pNU9c8N6TBp8zxaVaoywSsCIgMEKcGun6rK25yfXYX2ZpfAn/kUrv/ALCDf+i0r0qb/WfhXmvwJ/5FK7/7CDf+i0r0qb/WfhXKdhHRRRQAUVl+I/Emn+FdKa/1OQqmdscaYLyt6KP69BXG6F8Z9O1XV4bK902awSdgkU5mEi5JwN3AwCeMjOP1oA9Goo6UoGSAOpoASivO/EPxk07R9XmsLHTpdRFuxSaYTCNQwODt4OQOmTgfzrsPDviOw8T6MmpWDkQklZFkwGiYckN24HP0NAGpRXmd98cNMg1J4rPSrm6s0babnzQhPuFwePTJH4V3+j6xZa9pkWoabMJreUcHoVPdWHYj0oAu0UUUAPjZlJ2jJryX47ECPw8W4AknJP8A37r123+8fpXkXx5GYvD49ZJ//adAHS/8Lq8J5/115/4Dn/GrNl8XvCN7MIzqD27McAzwsq/nggfjXM2XhfR3jYtpNoxDd4RRfeCdCvIWjbTo4CRw8A2Mvv6fmDXV9Vl3OJY6D6HrMM0VzCk0EiSxOAyujBlYeoI6in14l4B1a98D+N18L305l02+YfZ2PRWb7rAdsn5SPX6c+21zNNOzOxNSV0NkJEbEdQDXgnwoA/s/Umx8xlQE/ga96l/1T/7p/lXgvwo/5Buo/wDXZP8A0E1th/4iMMV/CYePrzUT4k0nTrC/ntVuI1H7uRlG5pCuTjr0FVrzwZ4iSznkn8QtJHHE7spllOQFJI59cVZ8Y/8AJRPDf1h/9HGu313/AJBN7/17Tf8AoBryM2xtWhiIwg9GdeXUKdSjeS1KXwJ/5FK7/wCwg3/otK9Km/1n4V5r8Cf+RSu/+wg3/otK9Km/1n4V6BBHWV4l8S2HhXSHv9RfjpFEp+eZv7q/1PajxL4lsPCukPf6i/H3YoVPzzN/dX+p7V5LYWGofETV38Q+JnEOlwgmKIttTYOw9EHdu/8ALKtWhRg5zehUIObshLCwv/iHq7+IfEziHS4gTFEW2psHYHsg7t3/AJR3wf4l+KbLStDtxHpen8Nc7Nu1CRlvYfLhV/yJb29v/iNqy+HvDS+Ro8GPOn27VKjgMw7KP4U7/wAvW/Dnhyw8L6THYadHhB80kjfflbuzH1/lXLQpVKk/b1tH0Xb/AIJpOSiuSP3mqeSazPEerDQvDeo6mThraBmTI6ueEH/fRFaVc9450m317w3JpdxffZHuGVosEbpCpzjaSNw55x7V2ykoRcpbIySu7I8u8HIui/DvWtanUNJcq6KW53D7ig/V2P5V1fwk0Rm+HN2szsi6q8oVgOVTb5efzDfkK5n4goul+G9G8NafudpXGAPvOF+UZ9yzE/UV7Do+mpo2jWWnR8rawpFn1IGCfxOT+NcWAftFOv8AzPT0WiNa3utQ7Hinh+5Hg3Ub3wp4qtI0t7l8+awyjZGASe6HHB/hPpziz/xM/hVrv26w33ehXTASxE/kCezD+Fu/5ivT/GHg+x8Y6Uba7AjuI8m3uQuWib+qnuP615fpGr3Phm8l8I+M4VNqR5ccsnzIEPTnvGex6qfTHBWp1KM3Xo63+Jd/Nef5hCSmuSXyZ7Fo+sWWvaZFqGmzCW3lHB7qe6sOxHpV2vEf+Jn8Ktc+3WG+70K6YCWJj+QJ7MP4W7/mK9h0fWLLXtMi1DTZhLbyjg91PdWHYj0rrpVYVoKcHdMzlFxdmadv94/SvIfjzkw6BtOD5k+D/wB+69et/vH6V5F8d/8AV+H/APrpP/7TrQkw4/BHiXcFXxI65PaaWp/hpqN7eDVIr27muBC8ewyuWIzuBwT9BXoNl98f79eb/C7/AI+Nb/34/wCb1w5LjauJqyVR7f8ABKzOhTp0vdRY8a/L428LOvDeanP0mFe8V4P43/5HPwt/11T/ANGiveK9Ov8AxGc2G/hIZL/qn/3T/KvBfhR/yDdR/wCuyf8AoJr3qX/VP/un+VeC/Cj/AJBuo/8AXZP/AEE1WH/iIWK/hMPGP/JRfDf1h/8ARxrt9d/5BN7/ANe03/oBriPGP/JRPDf1h/8ARxrt9d/5BN7/ANe03/oBr53Pv96gejlf8ApfAn/kUrv/ALCDf+i0r0uUZmAJ4OK80+BP/IpXf/YQb/0WlelT/wCs/CvbOY8LeM+PPiZqSa1ORBYSOkNnnBKI+3aPyy2OT/JnjjVZ7/xDb+FVlj0rTA0avNICqODjDHH8A6AdMjn2634h/D+e9uT4i8N7otXhPmSxR8GbH8S/7fqP4vr1520u9O+JejGx1Dba61bKSjgd+7KO6n+Je3UV5eKi6deOIqawX/kvn5nRTfNBwWj/ADPVPDvhyw8LaTHp+nR7UHzPI335W7sx7/yA6VqV5H4I8b3fhXUB4X8XMY4o8La3TnIjH8ILd4z2P8PQ8dPXcYr04yUldbHO1YSuJ8Q2Gg+IfFdrMt352qaQcPFDLwvzZUMMdmJ6H2NddqF/Hpem3V/P/qrWF5m56hRnFeM/D2RrTS9e8U33zSEu24/xEfO35syj8K48wnKOHlyuzdkvmzWgk5q5bsYx4o+NyDh7XSBn2/df/bGr2OvMPglpjjTNT1q4yZb2fylZu4Xlj+LN/wCO16fXTRpqlTjBdERKXNJsK5/xn4S07xZorxX7LbyQK0kN4cDyOMkkn+DjkH69a33dIo3kkdUjRSzu5wqqOSSewFeN+KvFV98RtVPh/wANlo9HjYG4uGBHnYP3m9F/ur1J5PtUpxhFyk7JCSbdkVfh9q8+oC68OX8aahp8UbBZuSoUHG05AO09V6Efyn8KmXwd8V00PTrpp7C9IWaEnJTKkjP+0uOvp9aXVtWtfBFhH4e8MxmbV5iFd1Xc6ueASB1kOeF/hrrfh38Ph4ajOp6sfO1qcHcS24QA9VB7se7fgOMk+dg4SnVlXiuWEtl38/I2qtKKg9Wv6segW/3j9K8i+PH+r8P/APXSf/2nXrtv94/SvIvjv/q/D/8A10n/APademzBHWWf3x/v15v8Lv8Aj41v/fj/AJvXpFl98f79eb/C7/j41v8A34/5vXjcOfxp/L9TfN/4X9eRY8b/API5+Fv+uqf+jRXvFeNeIfD2pa54t8Oy6fbebHbygzNuAEYEgYk57Y9K9lr3q/8AEZw4Z/ukMl/1T/7p/lXgvwo/5Buo/wDXZP8A0E171L/qn/3T/KvBfhR/yDdR/wCuyf8AoJqsP/EQsV/CYeMf+SieG/rD/wCjjXb67/yCb3/r2m/9ANcR4x/5KJ4b+sP/AKONdvrv/IJvf+vab/0A187n3+9QPRyv+AUvgT/yKV3/ANhBv/RaV6VN/rPwrzX4E/8AIpXf/YQb/wBFpXpU3+s/CvbOYjrzj4hfD6W7uD4i8MhodWhPmSxRcGYj+Nf9v1H8X16+j0UNX0YHjFpd6f8AEvRjY6gFttatlJVwOfdlHdT/ABL26irvgXxne+GtUTwn4q3KgIjtLljkJn7qk90PY/w9OnTU+IHw8mvbr/hIfDGYdXjbzJYozt84/wB9fR/UfxfXrx8tj4m+IeqaZZ3ejSWK2hInumheMAEjcSW78cKO5NcVGhPD1OWn8D6dn5eTNZTU43e/5nc/GXV/7N8EmzVsS6hMsWO+xfmb9Qo/GuM8Uj/hG/hhpukD5Z7wqZF78fO//jxUfhXXfF7wzqOuWOn6hpcLXMmns5e3UbmZW2nIXvgryBzz7VzGmaZr3xB8YadearpT2Gm2BVpA8bKrYbcVG7kliMcdB+t16MqtSn/Knd+vQUJKMX3Z6l4S0j+wfCmm6cV2vDAPMH+23zN/48TWvwMkkADkknAApScnJ6mq99ai+0+5tC5QXELxFx1XcpGfwzXUZnkXirxTf/EXVj4f8Nlo9IjbNxcEECbB+83+z/dXqTyfZmrata+CLCPw94ZjM2rykK7qu51c8AkDrIey/wANZenJ4v8ABsV5oVpoUz3M8uY7qOFnxwBlWHykYGQT0ya9A+Hnw8Xw2n9qavifWpgSSTuFuD1APdznlvwHGSeGph516v734Fsu/m/8jVTUI+7uw+Hnw8Xw2n9qavifWpgSSTuFuD1APdznlvwHGSe7ooruMia3+8fpXkXx3/1fh/8A66T/APtOvXbf7x+leRfHf/V+H/8ArpP/AO06GCOssvvj/frzf4Xf8fGt/wC/H/N69Isvvj/frzf4Xf8AHxrf+/H/ADevG4c/jT+X6m+b/wAL+vI7jPiH/hItJGg/Zvs+8/bTKFz5eRnrzjH93nPtXo4rxzxD4i1LRPFfh2HTrkwx3MoEyhQfMBkCkHPbFeyV7+Id5s8/CK1JDJf9U/8Aun+VeC/Cj/kG6j/12T/0E171L/qn/wB0/wAq8F+FH/IN1H/rsn/oJp4f+Ih4r+Ew8Y/8lE8N/WH/ANHGu313/kE3v/XtN/6Aa4jxj/yUTw39Yf8A0ca7fXf+QTe/9e03/oBr53Pv96gejlf8Ao/As7fCF4fTUG/9FpXpLtvfOMV5t8CyB4QvCen9oN/6Ljr0qVg0hK9K9s5hlFFFABS5J6k0lFABSk5680lFABRRRQAuTjGeKSiigAooooAmt/vH6V5F8d/9X4f/AOuk/wD7Tr1uFwjHJ6ivJPjvzF4fP/TWf/2nQwR1ll98f79eb/C7/j41v/fj/m9ekWX3h/v15v8AC7/j41v/AH4/5vXjcOfxp/L9TfN/4X9eRZ8b/wDI5eFf+uy/+jRXu9eEeN/+Ry8K/wDXZf8A0aK93r3q38RnDhv4SGS/6p/90/yrwX4Uf8g3Uf8Arsn/AKCa96l/1T/7p/lXgvwo/wCQbqP/AF2T/wBBNVh/4iFiv4TDxj/yUTw39Yf/AEca9Cu4FnhZGXcjKVZfVSMGvPfGP/JRPDf1h/8ARxr02O3lmBaNCQDjNfN8QKTxMeVa2PQytpUNTzKx0fxn4Te4tvDOpILKV9+CUznGMlXBwcY6dcCrn9p/FL/oJx/lb/8AxNehHT5ieYf5Uf2dN/zwH6VgszxaVuT8GdP1ej3/ABPPf7T+KX/QTj/K3/8AiaP7T+KX/QTj/K3/APia9C/s6b/ngP0o/s6b/ngP0o/tTF/yfgw+r0e/4nnv9p/FL/oJx/lb/wDxNH9p/FL/AKCcf5W//wATXoX9nTf88B+lH9nTf88B+lH9qYv+T8GH1ej3/E89/tP4pf8AQTj/ACt//iaP7T+KX/QTj/K3/wDia9C/s6b/AJ4D9KP7Om/54D9KP7Uxf8n4MPq9Hv8Aiee/2n8Uv+gnH+Vv/wDE0f2n8Uv+gnH+Vv8A/E16F/Z03/PAfpR/Z03/ADwH6Uf2pi/5PwYfV6Pf8Tz3+0/il/0E4/yt/wD4mj+0/il/0E4/yt//AImvQv7Om/54D9KP7Om/54D9KP7Uxf8AJ+DD6vR7/iee/wBp/FL/AKCcf5W//wATR/afxS/6Ccf5W/8A8TXoX9nTf88B+lH9nTf88B+lH9qYv+T8GH1ej3/E89/tP4pf9BOP8rf/AOJqs+geKPFGq2k3i2/WWC0OVQFckEgkAIABnAyTzXpf9nTf88B+lRm3aOURmPDnoAKmpmmK5bONr+THHD0b6fmMtUKMmepbJrzX4Xf8fGt/78f83r1HyJIZY/MQrluK8u+F3/Hxrf8Avx/zeu3hxNVpprt+px5s70b/ANdCz43/AORy8K/9dl/9Givd68I8b/8AI5eFf+uy/wDo0V7vXvVv4jOLDfwkMl/1T/7p/lXgvwo/5Buo/wDXZP8A0E171L/qn/3T/KvBfhR/yDdR/wCuyf8AoJqsP/EQsV/CZF46uYrPx1oNzcMVhhWORyBkhRKxPFdVH8UvD8IIjv7gDPT7M1XL/SNP1Qob+zhuDGMKZFyQKqf8InoX/QJtP++KyxmVrFVPaOTTXYzw+YKjT5LDv+FsaF/0EZ//AAFNH/C2NC/6CM//AICmm/8ACJ6F/wBAm0/74o/4RPQv+gTaf98Vy/2Ev+fkvv8A+Abf2qv5fwHf8LY0L/oIz/8AgKaP+FsaF/0EZ/8AwFNN/wCET0L/AKBNp/3xR/wiehf9Am0/74o/sJf8/Jff/wAAP7VX8v4Dv+FsaF/0EZ//AAFNH/C2NC/6CM//AICmm/8ACJ6F/wBAm0/74o/4RPQv+gTaf98Uf2Ev+fkvv/4Af2qv5fwHf8LY0L/oIz/+AppP+FsaF/0EZ/8AwFNJ/wAInoX/AECbT/vij/hE9C/6BNp/3xR/YS/5+S+//gB/aq/l/AX/AIWxoX/QRn/8BTS/8LY0L/oIz/8AgKab/wAInoX/AECbT/vij/hE9C/6BNp/3xR/YS/5+S+//gB/aq/l/Ad/wtjQv+gjP/4Cmj/hbGhf9BGf/wABTTf+ET0L/oE2n/fFH/CJ6F/0CbT/AL4o/sJf8/Jff/wA/tVfy/gO/wCFsaF/0EZ//AU0n/C2NC/6CM//AICmk/4RPQv+gTaf98VVm0bwpbahBYzWdgl3Ou6OEocsP5DoevWh5GlvUl9//AGs0T2j+Bb/AOFsaF/0EZ//AAFNRt8UPDryiRr+4LjofszcUT+GfDttbyT3Gm2UUMSl3dk4UDvTLPQPDOoWkd1Z6fZTQSDKuqHB7d6mWQwlpKo/v/4ALNbK6j+BK3xS8PSuhlv7hgpyP9GauW+FjB5dZZehaIj/AMfroDo/hQap/Zv2Ow+27PM8nYd2MZ+nTnHXFa9jpllpkbJY2sVurnLCNcZPvXbgctjhajnGTd976nPisd7anyctjkvG/wDyOXhX/rsv/o0V7vXhHjf/AJHLwr/12X/0aK93qq/8Rm2G/hIQ8jB6V8/+HmHgjxlqnh/U28mKSQeTK/CnGdhz6Mp6+tfQNcz4y8CaX40tVW9DQ3UQxDdRgb0Hof7y+x/DFRCTg7o0qQU4uLMYgjqCKTFcx/wqXxlp/wC50rxPF9mXhQ08sfH+6AQPzo/4Vn8Qv+hmg/8AAyb/AOIrs+tR7HB9Sl3OnormP+FZ/EL/AKGaD/wMm/8AiKP+FZ/EL/oZoP8AwMm/+Io+tR7B9Sn3R09Fcx/wrP4hf9DNB/4GTf8AxFH/AArP4hf9DNB/4GTf/EUfWo9g+pT7o6eiuY/4Vn8Qv+hmg/8AAyb/AOIpk3w4+IEEMkr+JodqKWOLybOAM/3aPrUewfUp90dViivJdFl8Va7byTW2uzosbbSJLlwc4z2zWj/ZPjL/AKGF/wDwKk/wq1WbV1FmUqCi7OSPSaMV5t/ZPjL/AKGF/wDwKk/wrP1OTxVpV1Z282vXDvdttQpcPgHIHOfrQ6ziruLCNBSdoyVz1miuY/4Vn8Qv+hmg/wDAyb/4ij/hWfxC/wChmg/8DJv/AIio+tR7Gv1KfdHT4rB1Hwwb/wAXWOtfadi2qKpi2csVJIwfx/Sq3/Cs/iF/0M0H/gZN/wDEUf8ACs/iF/0M0H/gZN/8RUyxEJboqOEqRd00ber6f/aujXdh5nl/aI9m/GdvIPT8Kh8O6OdC0O3sDL5zRbiXC4BJJPA/Gsr/AIVn8Qv+hmg/8DJv/iKP+FZ/EL/oZoP/AAMm/wDiKPrEL81g+qVOXlurFj/hF/8Aitzr/wBp+Ux7fJ287tmzr6Y5roNp2sxwFUZZicAD1J7Vy/8AwrP4hf8AQzQf+Bk3/wARSj4QeK9UYRa54mRrbOSqSSTf+OttFCxMY3sgeEnK3NLYzbY/8J18VdMi0/Mmn6YVkeYD5SEbcx+hbCj8DXvFYfhXwjpng/Tja6ZEdzkGaZzmSUjpk+3YDgc+prcrllJyd2d0IqEVFBRRRUlBRRRQAUUUUAFFFcl4q+Jeg+E5za3UslxeAZNvbAMyem4kgL9M59qAOtqtqP8AyDbr/ri//oJrzD/hful/9Ae8/wC/iVFc/HjTJ7WaIaReAyIyg+YvcYoAw/hWP+JNfcf8vA/9BruMD0FeS+DfGdr4asLiC4tJ52llDgxuFAGMdxXRf8LX03/oGXf/AH9X/Cu+lVhGCTZ5lehUlUbSO4wPQflXDfEIAa94bwP+Wp/9GLS/8LX03/oGXf8A39X/AArnfE/jK113UtKuYbSaJLJyzK7glvmB4wPalWqwlBpMeHo1I1E2j6boryf/AIX7pn/QHvP+/i0o+Pul5G7R70DuRIlcJ6R6vRXNeFfH+ieL9yadOyXKjc1tONsgHqOSCPoTjvXS0AFFFFABRRRQAUUUUAFFFFABRRRQAUUUUAYvjDWn8PeEtS1OIDzYISY8jIDn5Vz+JFeP+AvDtvdWJ1zU0F3d3UjMhn+bHzHLYPViQeTXtWvaNb+INDu9MuywhuYyhZeqnqCPcEA/hXksPww8eaShtNK123FmjExgTunX/Z2nH0zWlKUYyvJGVaEpx5Yux03kQ/8APKL/AL4FL5MP/PKL/vgVzn/CB/Ev/oPQf+BTf/EUf8IH8S/+g9B/4FN/8RXT9Zh2OL6nU7nR+TD/AM8ov++BR5EX/PKP/vgVzn/CB/Ev/oPQf+BTf/EVt+FPBPi631R38S6xHNZeUQEjkMjF+MdVGO9NYmHYHg6ncseRF/zyj/74FHkxf88ov++BVzTfCGsp4n1GfUtTSTSH/wCPSCMfOnI68YGBkcZznNc1qngb4hSapdPYa7ALRpWMI85kwmeBtC8cUPEw7CWEqdzZ8mH/AJ5Rf98CkMEJBBhiIPYoP8K53/hA/iX/ANB6D/wKb/4ij/hA/iX/ANB6D/wKb/4il9Zh2H9TqdzF8a6Qvhu4s/EehgWk8VwA6xjChsEqwHbOCCOh/OvddJv11XR7K/RdqXUCTAegZQcfrXkR+FXjLW5obfxDrkLWCvvbbK0jD6LtAz9TXsNlaQ6fYwWlsuyC3jWKNc9FUYA/IVy1JKUrxR3UoyjG0ncnoooqDQKKKKACiiigD//Z;" vertex="1" parent="1">
          <mxGeometry x="530" y="310" width="100" height="100" as="geometry" />
        </mxCell>
        <mxCell id="q-qKCyOHFfv3Y1E1018K-6" value="" style="shape=image;verticalLabelPosition=bottom;labelBackgroundColor=default;verticalAlign=top;aspect=fixed;imageAspect=0;image=data:image/png,iVBORw0KGgoAAAANSUhEUgAAAgAAAAIACAYAAAD0eNT6AAAACXBIWXMAAA7HAAAOxwE4ki92AAAAGXRFWHRTb2Z0d2FyZQB3d3cuaW5rc2NhcGUub3Jnm+48GgAAIABJREFUeJzs3XeYFFX28PFv556cgGHIQxyCZEVBRNAFjAgqrKgYWF3Diru6Luu+xt+qa9oFds0ZAwqiIqhgAAQk5yQ55zxMZFL3+0c5ikiYqXu7q7v6fJ6nnw1O3brOdNU5devecx2IaFEDaAY0ArKBukAmkPHTJwHwA3HHHRMEcoEAcBA49NNnL7AV2PLTZxNQHvp/BSFEhIjnl/tJI4x7So3jPmmAA0g94bhcfrmvHMC4nxzEuI9s/ek/NwKFoe2+0MFhdQfESdUBugHnAG1/+tQO4flKgdXASmAZMAdYApSF8JxCiPBIAroA52HcS9oBTQBniM4XADYDy4EVwDxgLpAfovMJkyQBiAw1gN8BfYELMDJyqxUBC4HvgCkYCUHA0h4JIarCh3Ef6Qv0xAj6Lkt7BBUYDxjTMe4nM4FjlvZICAs1Ah7AyIzLMYbVIvmzD3gLuATw6P91CCEUpAA3Ap8DBVh/vzjTpxCYBNzEb18zCGFLacAwjCGxANZfhGY/h4DXMYYUhRDW8AD9gQkYT9NW3xfMfo4BE4GrkYcLYUNdgXcxhtWtvth0f1ZiJDUp2n5bQojTaQQ8CezG+utf92cv8DTQWNcvSwgrOIErgNlYf1GF45MHjAIa6vjlCSF+owPGg0QZ1l/vof5UYLwi6KrlNydEmLiBWzCW1ll9EVnxKQXeQTJ4IXTpDkzD+mvbqs8MoIfyb1GIEHICg4F1WH/BRMKnFHgVqKfySxUihp0DfI3113KkfL4FzlX6jQoRAmdjrJ23+gKJxE8Rxju9RNO/XSFiSx2M5LkC66/fSPxMIjKWSosYlwWMIbpn9Ifrsx241tyvWYiY4AUeIjqW8Vn9KQQewah5IETYXYtRAtPqCyHaPl8ADUz8voWwsw4Yxbasvj6j7bMBo9iREGHRAKM6ntVf/Gj+HAVuq+4vXggb8gMjkOF+lU8F8F9+vQ+KENpdg1EEx+ovvF0+n2GUQRYiFrUClmL9dWiXzxqMkRQhtIoHRmP9F9yOn13AhVX+SwhhD/cAxVh//dntcwy4txp/h5gmmwGdWRPgU4wNNSzlcDpIqptJWuP6pDepT4PmTahXK5OU1BR88XH4E+LxJ8QTn5JE6bESSoqKOJZfRFFePscKiyguKGTflh3s3rCFPZu2smfDVo4VFln9rwXGXgjDgf9Y3REhQiweeA243uqOANSM85KTmkCLtASa18qgYXY2icmpJPq9JPi8pMXHkeDz4gAKSko5UlRMYUkphSWl5B8rYfvho6zfe4B1ew+ydu8B9ucVWP2vVOkj4A/ItsSnJQnA6V0CfIBRwz/s4mukUr9rB+p17UBWx1akNamP2+cl1eWlnieBeKdb+RyHd+9jx5oNrJ61gB9nLWDLih8JVFi26d9Y4FaMpYNC2E02xmuvdlacPN7toltWKr3qZtA9K42W6Qmk+zzgj4e6jSFV/W3ckaJi1uzez6wNW5m2ZhOzN26jsKRUQ+9NWQVchVGUTZyEJACndifGxBL1KFtFTreLhhd0puGF51C/WwdqNG8Ejl/+RC6Hg/qeBGq5QzfXpehoPmvmLGLVzHks/GIqh3btDdm5TmEBcCXG7oNC2MU5GBveZIbzpB1rJnNFo5r0qpvBubVT8Dqdx/1TB9SuD1mN4Ff/vz6l5RXM37yDaWs3MWnZGhZv2xWS85zGAaAfxq6r4gSSAPyWE3gG+Gu4TlirTTNaXtObnH4XEV/z5IMN6S4fjbyJuB2huVBPJhgIsHrWAmaNnciCSd+F83XBFuAyjEk9QkS7/sD7GMP/IVc3wc/1zbMY0qIOrdNPUX8rLhEa5UB8eOtz/bh7P+/NXcr7c5ey88jRcJ22GBgCjA/XCaOFJAC/5sLY835IqE/kTYrnrMGX02pgX2q0yD7lz3lw0siXSJrL2noXJUXFLJj0Hd++9REbFi4PxykPAn2BxeE4mRAhcgvG1tmuUJ7E5XBwdZNMhrasx0X10nE5TnFrdzghq6Hx5B/Gh4kTBYJBpq3ZxJuzFvHxopVUBEL+2jEA3IHxtxA/kQTgFx6M9/0hrVbnT0um/S396TD0avwpSaf92USnh2a+JDyOkN47qm3dvCVMHPUmS76eEepTHcUYCZgd6hMJEQJ3AC9ijCqGhMfp4PfNsvhHx8bkpCWc4Ye9kN0akiJr5+6tB48w4tsfeG3GAo6VlYfyVEGMkV2ZbPwTSQAMHuBjjHdFIZFQK4NOfxxI2xuuwJNw5nf4tdxxNPQk4DhVJh8BNixazoR/v8bSb2YSDAZDdZpC4FJgZqhOIEQI/Bkj0ITkAva7nAxtWY+/dcymQaL/zAckpECTVuCJ3Mq5Ow4f5bkpM3lj1kKKS8tCearhwLOhPEG0iNzoEj4u4D3gulA07nS7aTfkSroN/0OVAr8TaORNooa7Chd1hNi8dDVv/vX/2Lx0dahOkQf8DmOCoBCR7lbgDUJ0f728UU1e6N6ShklVnAxcqy7UbQrO6Ljd787N4+/jp/De3KWhPM1fgX+H8gTRIDq+EaHjwHjnf3MoGm/QvRO9nriXtCb1q/TzboeT5r4UEjUs7wu3ivIKvn79A8b/60WKC0Ky9PYwRs3vFaFoXAhNbgTeIQTD/o2T4/hf95Zc2rBm1Q9q0Bxq1tHdlbCYsmo993wwkY37D4Wi+SAwFHg7FI1Hi1hPAP4F/F13o4mZGVzwyF206Nerysd4HE5yfKnEOSPrfX91Hd6zn/cfepa5n00JRfO7MPYD3xmKxoVQ1BtjsyuPzkZ9LifDO2Tz947ZxLmreH9wOqBhS0ivpbMrYXesrJxnJs/g6a++D8X8gHKMJceTdTccLWI5ARiKMUynVYPunbjkv//vlMv5TsbndJHjTcEX5cH/eAsmfcur9zxMkf7KYKuB84Fc3Q0LoaAVxmTVVJ2NNkqK46Pe7eiSWY2Je04nNG4NKRk6u2KpH3fvZ+DLY1i9W3t5kHzgAmCZ7oajQawmABdjZH3axtqdbjfdhg+l8x2DflW850zinW5a+FPwhG6isGX2bNrKqFvuZ9uqdbqbngJcjrELmBBWywQWAlV711dFg5rW5rULW5PsrcZtyuWGZmcZk/5sJv9YCXe8O4Ex87XH6l3A2cAe3Q1HOvs8clZdA+AbQFsFjKQ6tbjqnaeMIf9qBH+/00VLXyoeC9fjhlJSeio9Bl9FcUEhGxev1Nl0U4zkbZrORoUwwQ1MQuNeIX6Xk+e7teD5ri3wuapxb3A6oVlbSLRf8Afwud1c3akNjWum883qDZTpK1meDHTDmAweUw8VsZYA+IGvMQKIFnXObsPA8SOrPNGvksfhoqU/BW+ErfHXzeV20/7i7tSol8Wyb2cSDGhbLng+sBxYq6tBIUz4N/B7XY1lxnuZ2u9s+jeuZsVgh8MY9k9O19WViNWufhaXtm3BxGVrKNC3z0A9jD1fYmo+gL2jz2+9AFyhq7HGF59Hv7efwpt0hgIcJ3DhJMefQlwUzvY3q1HbljRq24rFX02jolzLZB4HRn2Asch8AGGNq9FYVKZxchzT+51Dm1OV7z0VhwMatIj6CX/VkZWSRP+OrflqxToOFxbravYcjAeKkK1njjSxNAfgEuBLNP07t7y6N73//QBOd/WCuAMHLXzJJLu8OroRdTYtWckzg+4i/9ARXU0uxBi+C2nlECFOUBdjBErLTLs26YlMuaITdRNM1P+omw21G+roRtQ5VFDE5aNGM2/zdl1N5gLtgW26GoxksTICkIUx9F+9R/VT6Hzn77noyXtxuKr/62vsTSLNHbnVuEItPSuTDr0vYPHk6RTna6kXUBfjvV3I6xIL8RMn8CnQWkdjPeqk8+2VnakZZ+KhID0T6mt7oxl14r0eBp3TlgVbdrDloJaHCj/QEWM+QMjKm0aKWEkAxgAddDTU6Y8DueChO6o12a9STbefuh4tOUhUS66RTsc+PZj72WRKio7paPJ8jNGdmJvFKyzxJ+BuHQ2dm5nKN1d2Islj4nWgPx6anBWyrXyjhc/t5trOZzFj/Ra2H9byNrAhxj4ktt9COBZeAQwCPtLRUE7/i+k76kEcJi64eKeb1v5UHDHxK6+azUtX80S/W3VVDlyOsZRHXgWIUGoArAJOv5NXFbRKS2TWgHNI95moG+R0QcuO4JcHikpHi49x4bOvsWy7lueAIoyVHZt0NBap7D4CkI5RmUt5yV/2Redy2UsP4zQx7O9yOGjpS8Vt0+V+ZqVl1aJpp7bM/WwKgQrl1Te1gQJk50ARWu8BZ6k2UjfBz7R+ncmKN/k6sFEOJFW92Fgs8HvcXNm+JZ8uWU2u+siiB2iD8fe2LbsnACOBHqqN1O7Qkqve+Rdun7mJe018ySS5tFYHtY1aDeuR2bgBC7+YCuo7Cp4PvI8xfCeEblcDD6s2kuH3MP2qc2iaEm+ugRpZkBWbk/7OJMnv4/J2OYxbuIJC9SWC2cAabLwqwM4JQGvgVRQ35Yivmca140fiTzU34pfm8lFP3vufVv2WzQhUVLBmziLVpjxALYwJWkLo5AU+wxhVNM3pcDDhkg7VK+17PI8PmraJ+ff+p5OeEM/Z2fV5b+5SHduUn4sRR2z5atHOCcAHQDOVBhxOB1e++QQ1WzY2dbwLJ839KbhMTBiMNa26dWbd/KXs36a8z08bjAqB2tYFCYGxh/y1qo08cnYThrasZ76B7JYQr62IqW01qmG8Hvl+3WbVppKBUmy6ysiuaeSlGPvHKznvvptpcH5H08fX9ybglff+VeJwOrnr5adIrqlcycyBscujELpkYCQASi6sm87DnZuYbyC1hvERVfLQFb24uJWWJZIPYIws2o4do5MDeEy1kfpdO3DOPTeYPj7R6aFWDK/3NyOtdi2GvfE8zurUPz+5bkAfDV0SAowAkKzSQK04Lx9c3Nb8aKDLBfWbq3Qh5jgdDj64bRB1UpX+dGBMIv+bhi5FHDu+AugP3KfSgD8tmWvHjcCbaG6SjgNo7kvBY/M6/6FQq2FdSoqKWT9/qWpTLQjBds8i5mRivE5UKt35cd/2dKypEIjqNoYU+9f51y3B56Vd/Szen6e8g2AH4C2MlUa2YccRAOVZut3/cTvxNc0vsUlz+YiPoTr/ul09/C5qNqir2szZQF8N3RGx7T4UK4gObFqbSxooDN17fFBT+XqIWRe3asrgLu1Um4kD/qqhOxHFbgnAxShW/Mtsl0PrQZeYPt4B1PXKrH8Vvjg/N/3r7zqast0FK8IqCbhdqQGPm/90a6HWi6yG1Zr1fyC/kBenRW4Ru1e+n8+eo/lhPee/B11GaryJfRZ+7TYgVUN3IobdxqhfRGGrX4fLSb+3nyQx03y2XtPlp6Zb+YsW8+o0y2bL8h/Zs3GrSjPZGNt77tLSKRFr/gT0U2ng6fOa07u+wtO/zw8Nc6pcevxAfiEXPf8G78xeTHFZGb9rpbQQSrvnpszkzx9+waRla7i6UxuS/OGZJ5Xo8xLv9TJl1XqVZnwYmwXZptiYnUYAWqI48av9zf2p1cb8BeN0OKjrNVncQ/zGzU8/iC9OOZm6R0dfRMxxovjdaVcjiXvOaqDWizrZ4Kxe8F+5cy8Az06eyfDxkbO9/XNTZvK3j43+rN93kJ7Pvs7u3Lywnf/uXufSoUEd1Wb+BNjm/a6dRgD+AZxn9mBfciJXvv2k6Wp/ABluPzXk6V+bhJRkSoqLWTt3iUozzYGXAW2bhouY0BfFDX8+uLit+Wp/AF4/NGxRpaf/E4N/pdkbt0XESMDxwb/SocIivli+NmwjAU6HgxZZNRk9W+l+kgwsBtbp6ZW17DIC4APMr9kD2t86AF+S2rv7Wu44peOjRaAiwKyxk3RU2Tqjy+66CX+C0qiKH8XvhohJSu/+u2SmcFG9DLUe1KijFPwrWT0ScLLgXyncIwEXtmjM+c0aqTbzBw1diQh2GQEYCAwxe7AnIY7LXnoEd5z5LDTR6Y6JrX4DFQFe+dP/45NnXuLI3gN07NMDRwgrHXrj/BQczmXDwuUqzdTDGAUQoipqA6+g8ID0So/WNE9VuB84nJCdY6z/P40zBf9KVo0EnC74Vwr3SECd1GQ+UFsW2BR4EwjvTMYQsMsIwPUqB7e98Ur8aWrFImLh6b8y+M8aOwmAae+O542/PB7ykYDLh92CV+3GcBYadnATMWMQCu9529VI4rJGNdV6kF4TPKd/HVnV4F8p3CMBVQn+lcI5EtC3TXM6N1Iox2w8OA/U1B1L2WEEIBXj6c7Uv4vL6+HSlx4xXfQHwO1w0tiXhAP71vw/MfhX2rL8x5CPBPgT4jmyZz+blyptynUImK6pS8Le/gPUN3vw/7q3pHW6Yr3+hi3Ae+qkt7rBv1K4RgKqE/wrhXMkoEZSAuMWrlBpIhUbFBqzwwjAVShU6crpfzGJmWrv6jJcvpgM/pXCMRJw6Z1DVBOMQbr6ImytHsYOcKY0TIpjQONMtR744yHh1COSZoN/pVCPBJgJ/pXCNRJwVYdWNKmldN8/B2ikpzfWsUsCYFqra3ordyDNZd+a/2cK/pVCnQTUbtKQZmcrVfNqhrFFtBCn0w+F++INzbPUd/9MPfXrA9XgXylUSYBK8K8UjiTA6XBww7ntVZpwoBh7IkG0JwBeoJfZg5PrZVK3S1ulDrgdTpJcHqU2IlVVg3+lUCcB3QddqdqElAYWZ2K+DChwQ3PldeaQdvIn04MFhfR67nXl4F/p2ckzeWTCt1raAnjyi+nKwb/S+n0Huej5N9iXF7rS+zee10F1VDHq7yfRngCcj1Gu05SW1/TBUY0SmyeT5vTacvC/usG/UiiTgPP698WjUKcBG1ywIqR8QA+zB5+bmUpOmuJKIK8f4k5+S0v2+1WHrX/jn5OmaRkJeG7KTB767BsNPfpFg/RUkkM4F6BJrQzOa6JUqKkHENWV36I9AVCq/NdywO+UO5DuVgpIEcls8K8UqiQgITWZjn0uVGmiO1F+wYqQ6o6x9aspN7bIUu9BWs1Trv33ul2Mu2Mw/Tq0Uj/PcVRfB+gY9j9R79bNmPCnG4nzhnZ0dUhXpa1j/MAFmrpiiWhPAM43e2BmuxzSGistBcGFgySnvRIA1eBfKVRJQLdrLlM53Ad00dQVYT+m7ycuh4NBTTUkAMmn3/I30pKAaA7+AAPPbotbbRS4u66+WCGaEwAf0MnswY16dFbuQLzLjTOERXDCTVfwrxSKJKD1BV1wupS+tt109UXYjukEoFPNZDL8igHL4YTElDP+WKQkAdEe/AHS4uM4O1vpQTCq7yfRnACcg5EEmFJPbegHgCSnfSb/6Q7+lXTXBohPTiS7ndJk/qi+YEXIuDDuKab0qnf6J/cqiU+o8ra/VicBdgj+lXq1bKJy+DkoLEO3WjQnAGebPdDl9VCns/qKsESbJAChCv4X3XQtQ//ziPYkoM0FSqP4pm/ywtZaojChuGddDZPzTrP2/2SsSgLsFPwBeuYoJQBxRPHy4mhOAEyXdq3TuQ1uxdmlDoz6/9Eu2oI/QKvuSjE8HdCwVkvYjOn1wF6nk261U9V7kFj9cuThTgLsFvwBujVtiN+jdC9XW0tuoWhOAEz/0ut3VSoAAYDf4cLtiOZfX3QGf4AW53ZUXQ4YtResCBnTDxTn1k4hwaOhqnrCmd//n0y4kgA7Bn8Av8etuhwwavcZidYI5sQYsjMls32OcgfiovzpP1qDP4Avzk+9nKYqTbTR1RdhG6a/E51rmgvcv+JyGzUATKpMAi5vp35vO15lsSCdRX4q9WnTnM/vGWJp8K90TrbprR8giu8n0ZoA1MF492JKulq2B4DPEb37KEVz8K+U1bSRyuGNNXVD2IfpjFK5+A+Az3zwr+R1u/jkrhu0jwT8c9I07UV+erduxmd336A69K5Ni9pKuzcqTSKwUrQmANlmD3T7vCTVqaXcAZ9iBUGr2CH4A9RRSwBMf3+ELTkA008FLVJ1JAB6thMP1esAnSJh2P9ELWrXUDm8IVG6s250RjGFXZhSs+vhUFtHDoDPGX1/b7sEf4CsZkoxXBIAcbxMFCpERlICAJGdBERi8AfIyVIaAfAQpROLozUBMF25Ia2J0ruen/mjLOGzU/AHqKuWAOj5Egi7MH0/SfW5yYzXsAxcwyuA40ViEhCpwR8gPSGeGolKiVxU3lOiNQEwPV6jWv4XjPFCbxSNANgt+IOxPbDCeeNRmEMibMf0/aRZioanf9CeAEBkJQGRHPwrKb4GUDrYKjGXAMRlqK/XdTmcUbMDoB2DP4AvPo64JKWbb1ResCIkTI//1ozTVAQuRFuKR0ISEA3BHyAr1XQdKIjS+0m0JgCmy255E9Qf/KLll2bX4F8pMV0pmdO7r6qIZqbr+CbqWP8PEMIRRSuTgGgJ/gAZCUoPFFF5P4mWWHYi038pT4L6brDR8Pxv9+APkJSmlACY3vZV2I7p+0mSrmVsIX6laEUSEE3BHyAjUSk2ROX9JFoTANN1fL1qf2QApR0AJ7/yPhP+87pyH04nUBHg5bv/oT349/7DdRET/AG8cUrvTaN2Aw+hnen7SZJXU+B2hX5OUTiTgGgL/gBxXqVkLirvJ5FRhaH6TP+ydbwCcJkMgJNffo/3HnqWYDBIoKKCAQ/codyXE1U++f8w7gut7V5007Xc/Mw/Iib4A7jVbi5qm0EIOzF9P9E2AhCmwmKVScDAV8bw+dIfQ3KOaAz+AF5X7CUA0ToCYPqb5VZ7agTMvQI4PvgDfPyvF/j0uVeU+3K8WBj2P55iAhCVF6wICdNfpHi3hsDtcIAzfNdWZRKguPb9pJrUyoiY8r7V5VObzxGVDxTRmgCUmz2worRM+eRBgtX6+RODfyWdSUCsBX+AijLTXwNQ+A4J26kwe2BJRUD97MEgVPOeomrkt7NZu+eA9nY37T/Eo59/q73dcChT+1uqBxYLRGsCUGr2wLLCIuWTV1TjWj1V8K+kIwmIxeAPUFZq+msAUKKrHyLqmf4i5aslob/QkUhU0am2+o2W9kOlRO1vGZX3k5hLAEoL1BOAwCmC+YnOFPwrqSQBsRr8AcpLlJJupexB2Ir5BKBUUwIQCM+AVLiCczQmASXlSn8DGQEII9NRXEcCUFGF4bqqBv9KZpKAWA7+AIW5R5UO19UPEfVMfxfyy0y/Pfi1Ck3tnEa4g3K0JQFHCotVDo/K+0m0JgCHzB5YVqT0RwYgcIYEoLrBv1J1koBYD/4AeYeOqBxu+jskbOew2QMLdL0CCIT2FYBVwTiakoADBUoxPCrvJ9GaAJi+YI/lFiifPHCaaYBmg3+lqiQBEvyNCYCFR/NVmlDKHoStmL6fHCnRNQcgdCMAVgdhq89fVQfylRIA098hK0VrAmA628rdukv55IFgkPLgby9Y1eBf6XRJgAR/w75tOwmaf2oqBfI0dkdEt4NmD9x4VP2VIgCl6iOTJxMpwTdS+nE6G/aZ/hqAjACE1U6zBx7ZtF1LB0qCvw4+CyZ9pyX4V/r4Xy/w2b9f+9X/FysV/qpi9/rNKofvJNzrrkQkM30/2VtUQq6OUYCSY+ptnCDSgm6k9ed4hSWl7Dyi9EywQ1dfwilaEwDTUfzIJj1/p2OBX48AdOzTgw69L9DSdqVxT/7355GAWKrwVxV7Nm5VOVxPFijsYhcKdSE2HNUw/0vzCECkBttI7df6fQdVHt4CKCSRVorWUsDbzB5Ykl9I4YHDJNQ0vQGY0c4JIwBur4c/v/Mfnr9+GCumzVZq+3gf/+sFHA4Huzdu0R78e//huqgM/gC7N2xROdz090fYUgVGEtDQzMFrjxRydq0UtR5oHAGI1CBb6dnJMwF45ppLLO7JL9btVSqKtBepAxBWW1FYd6ljFKAk+NsHBo/PxwNjXqBjnx7K7R9v3FP/kyf/EyiOAGzQ1A1hH6a/E+tyNYwAlOgZAXjii2nag3+fNs25ol1LrW0+O3kmj0yInIqB6/Yqvf/fqKsf4RatCUApChfsgdXqf6/iU0xAc3s9/GX0SO1JgE7RNuHvRIGKADvWKMXw0OyCIqLZarMHLj+ktBrFUF5mfBQ8O3kmD3+mN6j2bt2Mz+6+gfF3Xa99F8F/TtKfrJi1bPtulcNNf3esFq0JACj80nfMXaZ88qJA2SnrAURyEhDtwR9gy/LVFOUpLeeM2gtWhIzppHDGriOUBxTnlAaDUGh+Eloohv2P39UvVFsJR8LriopAgJnrt6o0sUpTV8IumhOAFWYP3DlnGUHF2ttBoKDi1POGIjEJsEPwB1g1c77K4YXAJk1dEfZh+n6SX1bO4gMaVpWaTABCHfwr2TUJWLZjD4fV9oiRBMACC8weWJJXwP7V6q+BCwKnH7KLpCTALsEfYLVaArAQhd3fhG0tRWEi17RdGpaBF1S/tHW4gn8lOyYBU39Ueh4oBxZr6krYRXsCYPoxfscPS5U7cKYEACIjCbBT8C8vLWP9AqVXOErZg7CtEhRGAabv0lAIrjCf6pSnCHfwr2S3JGD6WqUEYAVRug8ARHcCkAusM3vw9tnqSVtBoJyqXLBWJgF2Cv4A6xcso0RtP4d5uvoibMf0d2P2nlyOqW7pG6iAoqrNbbEq+FeySxJQUl7OrA1bVZqI6geKaE4AAL43e+CO2UspOqBWDr48GKAgULXRZCuSALsFf4C5nyndHCqAmZq6IuxnutkDi8ormLR1v3oPcs/8KsHq4F/JDknAlyvWUViitDP4NF19sUK0JwCm17wEyitYN8n09f6zI+VVL+ARziTAjsG/vLSMeZ9/o9LEEqJ00w4RFtNRmB/y3jqlpWSGo6dfjx4pwb9StCcB781ZonJ4AIWH0EgQ7QmA0gW7ZrxSMAHgcEX15g2FIwmwY/AHWPL1DAoO56o0MVVXX4Qt5QKLzB48ZftB9hcrPU0arwBOURRod24eT32p/tByvD5tmvP5PUNMBf9KlUmA7mJBL0+fz7ZDStf7aR2wnsw9AAAgAElEQVQqKOKrlabfIoMxcVSpgpDVoj0ByAVM193dt2Idh9arVYUtCQYoClSvjHgokwC7Bn+AWeOUN0HSu4uSsCPT35GyQJAPN+xR70HuyWNKndRkpj1wG+kJ8ern4JciP36PekV4r9ultVhQgs/LxGFDaJiRqqW9kxm7cAWl5UoLgr7U1RerRHsCAPCZysFrPlEfBThSUf2sPxRJgJ2Df8GRoyz/bpZKE/uQCYDizCaoHKzlNcApEgCAjg3r8O39Q5WTAJVh/1PR9Togwefli3tv4sIWjTX17OTeVRv+B/hURz+sZIcE4FMUtnZdPfYryovV9nE4VHHMVAd0JgF2Dv4AU98ZR5naZJ2JKCwbFTFjNQplxhcfyGPuXsVh64Kjp90bQDUJCEXwr6SaBIQr+C/cspP5m5X2hNkELNfUHcvYIQHYjsJSjKKDuaz4QG1k+FiggqMmRgFATxJg9+BfUlTMVy+/q9rMRzr6ImKC0nflycWb1Xtw4PQjCWaTgFAG/0pmk4BwBX+AJ9XnUnysox9Ws0MCAKAUHRa99BHlak+X7C83vzZdJQmwe/AH+O6dceQdVFqyuQuYoak7wv7eRWFU8cttB9RLAx/aC6fYcKxSdZOAcAT/StVNAsIZ/Ffv3sekZWtUm/lAR1+sZpcE4CMUyngW7j/Ejx9/rdSB3IpSSoLmR5jNJAGxEPzLSkr48oXRqs28h5T/FVW3EcX5Ik8vURwFKC+DI/vO+GNVTQLCGfwrVTUJCGfwB2MXwkBQafOmRURx/f/j2SUBOILi5J1FL31IQG1GqNIoAFQvCYiF4A/w/QcTOLJXqcBKBfC6pu6I2PGKysGfbt7PmiOKFWL376rSj50pCbAi+Fc6UxIQ7uC/bu8Bxi9Sjt1v6+hLJHBZ3QGN9gG3mD245GgB8Rkp1O5gfi3rsWAFtTx+nJgPyk6Xiy5X9mbbyrXs2XTyJYqxEvyLCwr57633U1ygdCP9FHhNU5dE7PgR436SbObgILA5r4jrm9cx34OyUkhOBa//jD+alZrE71o1Y/yiVRSX/bJHiZXBv5LL6WRAxzas3LWXdXsP/Pz/hzv4A9z2zqes2aP0QJEP3IzCiHMkscsIAMAsFHdlmv3smxTsM7+rV3kwwN4ytVEAOP1IQKwEf4CP//UCh9UuVoAROvoiYk4ZiqMAk7cfZNLWA2f+wdPZuaXKP3riSEAkBP9KJ44EWBH8v161nglLf1Rt5g1Aw97PkcFOIwBgXLT9zB5cUVpG0YHDNLv0AtMdKAqUU8vtx6kYoE82EhBLwX/76vW8NuwRggGld3XzgUc1dUnEnjXAnwDTEXTu3lxub10Pj9Pks1ZZCSQkgz+uSj+elZpEz5zG5BWXMPaOwRER/CtVjgRsOnCI/w6+kguaZ4ft3MWlZVz+33c5Uqj0gFYBDMF45WwLdksAVmP8gUyXjzq4djP1urQjpUGWqeMrw1WKy2u2Cz87Pglodf45MRP8g8Eg/x36V/Zvq9o70NO4H+M7IYQZRUADoLPZBnJLy3EAveplmO/FsUKokQVVvPbrpqVwbeezcLsib4DX5XRydac2NEgPXYW/k3nii+lMWKJ8KxiLMQJgG3aMJncDL6g0kN6sITd8/Touk9mzAwft4tLxOvRcgOWlZbg87pgI/gDff/AZr97zsGoz24CmQPXqNAvxazkY8wFMX3xep5Plg7qSk5ZgvheNW0FaLfPHx7AN+w7S9tFRHCtTuhUEgXbASj29igyRlyKqewtQqsd5eMM2Zv7T/Ou/IEF2linOAD6O2+uJmeC/d9M23v3HMzqa+j8k+At1a4EPVRooDQS47tvlHKtQKES5a8sZ6wKI3yopL2fwa2NVgz8Yq8xsFfzBfq8AwLjpFwBXqDSyd9kaarZsQnqzhqaOLwqUk+jy4HfY8VccGmUlpTwz8E4ObFce+l8B3IVCMRchjrMAuAOFuQB7i0o5UlLOZQ1rmmugohwIQnKa2S7EpPs++pIJS5WH/iuAawHFGZ2Rx44jAABvYgzbKfnm/mc5ut387l5bSwoISAyqsnf/8TRbliv/2QAeQAr/CH12Av9VbeSlVdsZo7Jb4N4dxnbBokomLV/DC9Pm6mjqLTTEk0hk1wSgAviHaiMleQV8eef/UWFy+KgkWMGuUn2vAuxs7mdT+O7tcTqamgyob/EoxK/9C1Bek3rnjB/ZeLTI5NFB2LoWFCqOxorNBw4z5I1xBNUq/oExmvy4hi5FJDuPT68DugDNVBop3HeQwv2HaPK7rlWehfur4wPlpLl8eDRNCLSjrSvWMGLInykvLTvzD59eBTAAGw7VCcuVYKwKuEypkYoA3+8+wnXNsvC7TdwTykvB5YbEFJVu2FpecQmXjHybrQcVd2U0PAxM0dFQJLJzAgDGOvA/Am6VRvav2kCwooL63TqaOj4vUEYNl3ptADvat2UHT141lIIjR3U09xo2KtMpIs5S4GpAaTr+/uJS5u7L5bpmWbidJu4J+UchJQ08PpVu2FJJeTlX/Hc08zYpbfVbaS1G1T/bvk60ewJwGOM1R0/VhnbNX0FcWrKpUsHlwSAlwQrS3XLBHu/ogUM80e9WDu5UeC/6i20YN2dblOgUESkALMQoEaw0pLct/xirDxdwbdPaJh4MgpB3BGrUBrMFhmwoEAwy+LWP+GrFOh3NBYGBwCYdjUUquycAALMxhu0UinIbtn6/kJQGWdRs1aTaxxYHK3DhJNEVOZW5rFRcUMhTA25j59qNOpoLAoOw6UQdEVF2Y6wGqP7e3SdYm1vI1vxirmqcWf0iAxXlUFxo1AaQkUUA/vzRF7z9g1I1+OO9CLysq7FIFQsJQABjGc9QNPz7bp06j4ycbNKbVn95YF6wlGSXF1+MLw0szi/gucF/YsPC5bqafAHF4k9CVMMPwOWAuXKhx1l+KJ+jpeX0aVCj+klASTE4XTE/HyAYDPL3T6bwn29+0NXkFuAaoFRXg5EqViLRXoz6ABepNhQMBNjw5Qzia6SR2a5FtY/Pqygl3e3HFaNZ+9EDh3iy/21sXLRCV5ObMNbo2v5iFREjgLH52FAU5xcBzNt3lI1Hi7iiUa3q3xfyc6u1V4DdVAQC3PHeBP43VctyPzDiRD9sPvRfKVYSAIA5QFeg+uP3JwoG2TJ1HhXHSmnQvVO1Dq0gyNGKMjLcvpibFLh/2y6e6HerrmF/MG7EVwHaGhSiig5gbD72Ox2NrTxUwJy9ufRvXAtfdWv45x6o8rbBdlJSXs51r37E+/OW6Wz2UeADnQ1GslhKAILAd8D1QKKOBncvXEXx4aM0uvCcapXqLSdAXqCcGm4fDltux/BbW5b9yD/73cKhnXt1Nvs34COdDQpRDXMxNgpqrqOxLXnFTNt1mP6NM4l3V+PWHAxC7iFIzQC3+iZk0eBwYRF9R7zNN6s36Gx2GsaqsZip3hYb0efXOgMzgHhdDdbv1oFLXniIhJrp1Tou1eWlmS/F9n+EWWMn8eb9/0dJkdJWnCd6H7hRZ4NCmJCEMbrYRleDDRL9fNS7HefVruaOeR4f5HSw/UjA0u27GfjyGDbuP6Sz2S0YdWNiqoZILI0AVNoNbMCY5KEl9ubt2MuaT76hZqumpDas+mKDY8EKSgIVpLl8tpzIW1ZSwvsPP8eHj48wXU3xFJZgFPxRrhwkhKJSjEIx16PpoeJoaTmj1+3G53LSLSut6jepQAXkH4bUGkaxIBt6d84SBrz4PvvztJZEzsN4lbNVZ6PRIBYTADCWiznRsJSnUlnRMdZOmEowGKRel7ZVfiVQHKygKFhOmttvq5GA3Ru28NSA21gy5XvdTe8FegFa038hFORiFAkajKby6oEgfLfzEEsP5NO3QQ3iqvpKoLwMcg9Ccjq47bPkOP9YCTe/OZ4nvphGucquir9VudHPbJ2NRotYTQDAeA2Qg8ahO4JBds5dzu6Fq6jTqTX+tOQqHXYsWEHBTyWDo31iYKAiwNevj2HUrfdzePc+3c0fA/oCa3Q3LISizcBR4BKdja7LLWTsxr20TEugaUoVBxgqyn+aGJgGnuifE/Ddjxu5fNRoZm3YGorm7yWGJv2dKJYTAIAvMZYG1tPZ6NHte1g15ksC5eVkdWyF033m4biSYAV5gTLSXd6oTQI2LFzO89ffw4wxE3QP+YMx1DoQY6KOEJFoPhAHnK+z0dzSct5fv4fVhwvoWjuVZG8VhvcDFXB4PySlRO2cgF1H8rj93U8ZPn4KR/TOH6r0Ajbe6KcqYj0BKAfGY5QK1poEBCoq2DlvOesmTCW1UV3SGp+5+bJggMOBUpKdnqjaPKgwN48PH/8Pb9z3f+TuC8kcmgpgCPBJKBoXQqPvAD+akwCAH48U8urqnZQFAnTNSj1zzYBgwEgCvH6I17LwKSzKAwH+N3UO17z8AUu27Q7Vad4A7iaGZvyfTHQ+auqXAnyNMQs0JLJ7daHLvTeS1an1GX/WgYNGvkRquiI7cy/OL+CbNz7kixdHU3BYy85bJ1OOMcFKy17BQoSBAxgJDAvVCVqmJfBQ5yYMalq7asWDataBes3AzOZDYVIRCPDxopU8MWk6q/W/Pjzeq8CdxHjwB0kAjpeMMZv3vFCepM7ZbTj7ruto/LuuZ/zZTE8cDdyJEbdCoOBwLlNeH8OUV9+nMDcvlKeqwNiN6/1QnkSIEHAA/8N4ygyZ7OQ47m3bkD+2ro//TAWEElOgceuImxdQVlHBh/OX86+vvmftnpCvwnsduAOjiFjMi7DQYrmwJAEAdTq3pvMdvyf74nNPO0cg0emhiTcJn9P6tzX7t+7ku7fH8u1bYzlWWBTq05VhlFp9L9QnEiJEHMBLGAEnpBok+rm/fSNubFGHNN9pZv97vNAox1glYLHcomN8MG8pz389i60Hj4TjlC8C9yBP/j+TBOC3koDP0LBvQFXEpafQol8vWl7dm9rtc076M04c1PMkUNvjJ9x/sqKj+cydMIVZYyexfv5SgsGwXDtHMZbmfBuOkwkRYn8HniIMF6/P5eTyhjUZklOHSxrUxHOyIX+HAzIyoV7TsNcLKKuoYMqq9bw3ZymTlq/hmP7JwqfyLMbfQYL/cSQBODkP8BrG8HPYpDdtQM6A39HowrOp1boZjhOG9BKdbrJ9ycSFeDfBvAOHWf3DAuZ//g1Lvp5BWUlJSM93gq0YO62tDudJhQixa4B3MVYJhEUNv5ffN6vNFY1qcX5W6m/LC3u80KC5UTgohIpKy5i9cStfLF/Lh/OXcyC/MKTnO0E5xlP/K+E8abSQBODUHMA/gP9DU3GP6vCnJFH3vHY06NaB+t06ktG80U+dclDXE0+mJw6Xpj9fUV4Ba+csYtXMeayaOZ+dazaG60n/RPMwNvcJ6QwgISxyDvA5UDvcJ/Y6nZxbO4VedTPoVS+dLpkpeJ0/3dbSM6FuY/D6tJyrrKKC+Zt3MG3NJqat3cS8TTsoKQ/bk/7xcjGKM0224uTRQBKAM7sUYxJampWd8CbFk5Zdn7Qm9Ulv2oCaTRuS07wZjevVJyk99YyVB0uKj5F/8DB7N29nz6Zt7N6wmd0btrJ301YO7NhDMGD5nJhxGCMuIVnwK0SEaAhMAs6yshNep5OmKfHkpCXQPDWeFmlJ5DRuRMPmOWQkJ+M9Q+XBsooKDhYUsf1QLmv3HmDdngOs23uAdXsPsmH/QUrLK8L0b3JKq4H+GGXfxSlIAlA1TYCPgQ5Wd+RkHA4HCWkpxCcba319cXGUlZQQCAQoLyml4MhRSo+FdRi/OoqA+zCW5ggRC+KAf2NMDozIe3CS30dGYjxOh+PnZKC0vIJAMMjhwiLyiiP2fgIwBmNXP60bBojY5gEew1iaFpSPls9KLH4SEsJCvTE2J7P6OrTL5whwQ7X+AkJUU29gO9Z/2aP5UwE8A0TWgmQhwq82xjtqq6/JaP98AWRV83cvhCnJGLNKA1j/xY+2z0aM3fyEEAYHxkz1PKy/PqPtkwfcVv1fuRDqemAMY1t9EUTDpwBjVYWeqcZC2E8W8A7yYFHVz+dAtplftBC6uDG2lDyC9RdEJH4CGJNytG62JISNdQEWYP21G6mfdWjedlkIVRnA8xjL2Ky+QCLlswTorvJLFSJGOYFbgD1Yfx1HymcPcBfGhGwhIlJ9jPkBx7D+grHqMwujml9ELnESIorEYWwotBnrr2urPvuBB4EExd+lEGFTB3iO2JnYE8CYiat9H3QhBG6MbbGXY/21Hq7PVozJkfHqvz4hrJGC8SVeg/UXVCg+RcBooK2uX5gQ4pQcwGXAVOw5WTDw07/bAIykRwhbcAA9gbexx6jAIoyhyVSdvyQhRJU1AZ4EdmD9/UD1sx1jx8STb4kqhI3EA7/HqH8fTcnACuBhoLn+X4kQwiQnxmTb/wK7sP4+UdXPTuBFjAejsG+4JmSSViTwYRTG6QNcBLQmcv4uR4EZGJXKJgPbrO2OEOIMHBh7lvT96dOFyKm4WQrMxxjinwwsxEgEhEUiJdCIX2QC3TAu3HOAjhiVB0OtAmN97TKMi3QmRpEjy7f1EkKYFodxH+kOnA20BxqE6dx7MYL8AoytvucChWE6t6gCSQCiQ0OMd2OtgEY//e96P/3vOJNtfgv8gFGadz3wI8aEPiGEvaVjTNptijGPoBdGkmBGHrAKYx7CDoz7yRqM7XgPKfdUCHFK32H+/VsfC/orhIg8d2H+PiLbeEcxmXghhBBCxCBJAIQQQogYJAmAEEIIEYMkARBCCCFikCQAQgghRAySBEAIIYSIQZIACCGEEDFIEgAhhBAiBkkCIIQQQsQgSQCEEEKIGCQJgBBCCBGDJAEQQgghYpAkAEIIIUQMkgRACCGEiEGSAAghhBAxSBIAIYQQIgZJAiCEEELEIEkAhBBCiBgkCYAQQggRgyQBEEIIIWKQJABCCCFEDJIEQAghhIhBkgAIIYQQMUgSACGEECIGSQIghBBCxCBJAIQQQogYJAmAEEIIEYMkARBCCCFikCQAQgghRAySBEAIIYSIQZIACCGEEDFIEgAhhBAiBkkCIIQQQsQgSQCEEEKIGCQJgBBCCBGDHFZ3IIrVAFoAdYDEnz4JQOpP/90Thj5cBtQ1eexXwE6NfRFCRKdWwPkmj10DzNLYl1MpAwqAXKDwp/9eAOwC1gGHwtAH25EE4Mw8QBegK0bAz/npPzOs7JQQQoifHcJIBNb+9J+zgQUYiYM4BUkAfssFtMfIiLsBvYEUS3skhBCiuoqAOcB3GAnBfCQh+BVJAH7RGrgRuAmobXFfhBBC6HUYGA+8B/xgcV8iQqwnAFnAYGAI0NbivgghhAiPFcC7wBhgj8V9sUysJgDZwJ+B2wG/xX0RQghhjTLgI+BJjLkDMSXWEoDWwHDgOsBtcV+EEEJEhgDGyqhHgSUW9yVsYiUBaAQ8Dwwgdv6dhRBCVE8A+AR4ANhmcV9CzmV1B0LMA9yDMfGjPRL8hRBCnJoDY6T4jxjxYy5QYWmPQsjOAbEH8BJGkQshhBCiujYAfwK+sbojoWDHUsAJwFvA90jwF0IIYV4zYArwBhBvcV+0s9sIQEtgLHCW1R0RQghhK2uBgcBKqzuii53mAAwBPgfqWd0RIYQQtlMDuBljD4L51nZFDzuMAPiA1zGq+AkhhBCh9g7GRMFSi/uhJNoTgESMJRu9re6IEEKImDIduArIs7ojZkVzApAJTAY6WNWB5JQUGjdpRnaTpiQmJpKUnEKNtBTSUpOJj4sL+flHjBjB2rVrTR1777330qqVzJEUItbNmDGDMWPGmDq2e/fu3HDDDZp79FtFRUUUFBRQUFBAbm4ueXl5bNy4kXXr1pGXZ2n8XQxcCuy3shNmRWs1vMbA10DTcJ3Q74/j7C7ncV73C+h8zrk0a55DjZq1fvnnHidpCV5czvDlVOPGjTOdAFxyySX06dNHc4+EENGmvLzcdALQsmVLbr/9ds09qp49e/awdu1aZs+ezfTp05kzZw7Hjh0L1+k7YWws1AfYEq6T6hKNCUBTYCbGRj4hlZaezpX9r+Wyfv3p1LkLXp/vpD+XHOcmOc4T6u4IIYQ4QVZWFllZWfTs2ZOHHnqIY8eOMWfOHMaPH8/YsWM5fPhwqLvQDCMJuADYFOqT6RRtCUBtjCf/kAV/l8vFxX0u5drrbqDXxX3weL2n/lmng/RELz63HcspCCFE9PH7/fTq1YtevXoxYsQIvvzyS0aPHs0XX3xBIBAI1WnrYNQLOB/YF6qT6BZNkSsZY7OGxqFo3O3xcPXAwXw3exFvvDeWPpdecdrg73M7yUzxSfAXQogI5fP5GDBgAJ9//jkbNmzg9ttvx+MJ2WhtU+BbIDVUJ9AtWqKXH5hICCb8OZ1Orr/pVn5YtIqRL79B02YtztwZj4saST6cjmieQymEELGjcePGvPrqq6xbt45bb70VpzMk4e8sjJVpJ39fHGGiJQF4B6O2v1Zt23dk0rczefo/L1C3Xv0qHRPvc5GR5EVivxBCRJ/s7GzefPNNZs+eTYcOIVlE1gt4MxQN6xYNCcDdwCCdDSYmJvHksyOZ+M0M2rbvWPXj/G7SE7xRvXZSCCEEnHvuuSxcuJBRo0aRkJCgu/nrMQoFRbRITwDaAs/pbLBZi5Z8/vX3DBl6Oy5X1Sshx/tcpMbLTH8hhLALl8vFsGHDWLx4MW3bttXd/EgsrFNTFZGcACQC4wBtFXWuHjiYL6fOonlOy2od5/e4SE849YRAIYQQ0atFixbMnz+fYcOG6WzWjxHDknU2qlMkJwBvAGeekVcFLpeLZ0a8yMiX3yAurno7OnrdTjISJfgLIYSd+f1+Ro0axUsvvVSt0eEzaAq8rKsx3SI1AbgKTe/9vT4fL77xLoOH3FLtY91OBzVkwp8QQsSMO++8k/Hjx+P3+3U1ORi4QldjOkViApCA8e5EWVJyMh98PJHLruxf7WMdQHqiV5b6CSFEjLnqqqv46quvSE7WNno/Co2vs3WJxATgIaChaiN+fxzvjPmEc7t1N3V8crwHrxT5EUKImNSzZ08mTpyoayQgG/iHjoZ0irQI1xz4i2ojLpeL/776Fuec183U8X6PiyR/tFVJFkIIoVOPHj0YN24cbreWePA3IEdHQ7pEWgLwEooVlBwOB8+MeIFLLu9n6ninA9ISZLmfEEIIuOKKK3jppZd0NOUFRuhoSJdISgDOAy5SbeTW2+9i0PU3mT4+Oc4T1i19hRBCRLbbbruNu+++W0dTfYGuOhrSIZIi3WSMX45pbdt3ZMLkaafdxOd0PG4nmcmnH4A4ePAg33//PfPmzWPt2rVs2rSJvLw8iouLTZ1TRX5+PuXl5aaOTUxMDOWmGEKIKFFSUkJRUZGpY30+H/Hx1VtarUN8fDzJyck0bdqUFi1acN5559GjRw8yMjJCds6SkhK6du3KkiVLVJv6gghZFRApCUAnYJFKA0nJyUyZPpcGjbJNt1Er2XfSiX9Hjx5l7NixvPvuu8yZM4dgMKjSVSGEEJo5nU66devGkCFDGDhwoM4Z/D/buHEjnTp1Ii8vT6WZINARWKanV+Zpq3ag6AWgeuX5TvD0f/5H1/PN7xcU73WReMLEv4MHD/Lkk08yePBgxo8fz44dO1S6KIQQIkSCwSDbt29n0qRJvPLKKxQVFdGuXTvi4vStvktPTyczM5OJEyeqNOMAMoCP9fRKrSNWywFWozAfoUvX8/l44tc4FNbsZ6b48LiMLgQCAd544w0efPBBDh8+bLpNIYQQ1qlRowbPPPMMt9xyi1J8OF4wGKR79+7Mnj1bpZkAxkPvei2dMikSJgHegkI/3G43/3z6P0p/3Div6+fgf+DAAS677DL++Mc/SvAXQogodvDgQYYOHcrFF1/M3r17tbTpcDh45ZVXVOdQOQHzs9U1sToBcGFsm2ja0Dv+RMvWbZQ6Ubnmf9GiRbRr144pU6YotSeEECJyTJs2jc6dO7N06VIt7bVp00bHqoAbsDgGW/0K4HfAN2YPjo9PYO6ytaQrzPz0eZzUTPIxdepU+vfvT35+vum2hBBCRK7k5GQmTJhAz549ldvav38/2dnZpldQ/OQiYJpyZ0yyegRgiMrB1988VCn4AyT43MyfP59+/fpJ8BdCCBvLy8vj8ssvV31/D0CtWrX4wx/+oNrMDcodUWDlCEAisBdj859q8/p8zFnyI5m1s0x3wOGAgv07OO+8czly5IjpdoQQQkSPjIwM5s+fT5MmTZTa2blzJ02bNqWkpMRsE/lAbUBpGMEsK0cAemIy+AMMuPY6peAP4AyUMWjQQAn+QggRQw4dOsSgQYNUAjcA9erV47rrrlNpIgkwv35dkZUJQC+Vgwdepz5y8vQ/H2X58uXK7QghhIguixcv5pFHHlFu5+abb1ZtQikWqrDyFcByoK2ZA+s1aMicJT8qLf1bv2Y1fXt2payszHQbQgghopfb7Wbx4sW0bWsqFAFGXYAmTZqwZcsWs00sBjqb7oACq0YAagBnmT342t/foFzU4fGH/ibBXwghYlh5eTnDhw9XasPhcHD99Uqr2TsA6UqdMMmqBKAnCqMPV/S/WunkSxYtYOb305XaEEIIEf2mTJnCwoULldoYNGiQyuFO4EKlDiic2Arnmz0ws3YWzZrnKJ38jZf/p3S8EEII+xgxYoTS8a1bt6Z27doqTXRX6oBJ7jP/SEiY3vina3e1CZN5R4/yzeQvldqoVKddF1peOpB6HbuRUCMTl6fq2xA3jXeSqPjbf/62a1kz/wdTx/7llQ9p0/VCtQ4IIaLe9LHv8P6TD5o6tsc1NzDkkec09+j0ysvKyD2wl7ULZvPDZx+yYekC5TYnTJhAXl6e6R0EHQ4HPXv25MMPPzTbBaXN8MyyKgFoYfbAbooJwNdfTaSk5JhSG3Gp6fR57CWa9TK3pXOK20Fmgvrgi8ttvha1Pz6RhJQ05T4IIaKb1x9v+tA40BgAACAASURBVFi312fJfSSlRi0atmxLn5vuZOHXn/Pa8DvJP2J+75bi4mImTpzIDTeYX13Wq1cvlQTAdExUYcUrgHigvtmDzz63q9LJZ81Qe/eflFmXGz6YYTr4A2T6rC7AKIQQ9nB2n3488fkPpNeuo9TOd999p3T8+eebfrMN0ADQt29xFVkRiZpjcgKg1+ejYaPGSiefN3uW6WNdHi/9R40ltb75PngdKA/9CyGE+EVmw8bc/9o4pVHRGTNmKPWhadOmeL1Vfw18AifQTKkDJk8abqaHOho2aozL5TJ94vy8PPbs3mX6+HYD/0Bmqw6mjwdI9jgs34FJCCHspkm7zlw0+FbTx2/bto2CggLTx7vdbrKzs00fj/FwHFZWJAD1zB7YpKlagrR50wal4zsNvlPpeIAEl4R/IYQIhUtvvcf0scFgkPXr1yudPydHaYVaI6WTm2BFApBk9sDsJk2VTnxg/37Tx6ZnN1ca+q/kMz+AIYQQ4jRqZzclq7H5B8V9+/Ypnb9ZM6WHVLWtbU2IqgQgNVVttmlhgfntftMaqO0aVcktAwBCCBEytRuav1erbgmfnq5U0C8mEoBE0wcmms4dAJSW//mTU5XOXckRlAxACCFCJTHNfBAuKlLblddsHYHKw5VObkJUjQAkJJnOHQDjHY95EriFECLSqewToxYjIDFRKUaZXkJgVlSNACQkqCUAQgghRKgojgD4dPWjqqxIAExnOZ5qlNoVQgghwkmhDgBA2KeIS0k6ISLA7k3rKC7Is7obIVdckMfuTeus7oYQAkkAhLBU4dEjjHn6If7W52we6N2Z9YvnWd2lkNm8YjEPXnYeD/TuxOsP3k3eoYNWd0mImCYJgBAWCAYCzPzkA/7Ssy0TX36e8rJSDu7azuMDL2b8iCcIBgJWd1GbYDDI5Lde4JEBPdm7dRMV5eVMHfMmf+l5FpPfeoGK8nKruyhETJIEQIgwWz13BsMv7cJL9w0l79CBX/2zivJyxo98gidvuIwj+/ZY1EN98g4d4Nlb+jP68b9SXlb6q39WePQIox//Kw/07sTy77+xqIdCxC5JAIQIk0O7d/LiX27ln7/vw/Y1K0/7s6tmT2f4JWezdPqUMPVOv1Wzp/O3vmf+d9i9aR3/uulKnr11APu3bwlT74QQkgAIEWIlxUWMH/EEf76wDbM+HVPl4/IOHeTZW/rzzmP3/+bpOZJVlJczfoQxipG7f2+Vj1sy9Svu69WOdx67PyYmRAphNUkAhAiRYDDIvC8/4f5e7Rg/8gnKTFSiDAaDTHn7RR7pfyF7t2wMQS/1OrBzG49fexHjR5qbx1BeVsqUt1/kvl7tmDrmTVvNhRAi0kgCIEQIbF65hMeu6cXIu67n4O4dWtp78LLzmPXZhxp6Fxrzv/qUv1/ShfVL5iu3dWTfHl5/8G7+X7/utl4ZIYSVJAEQQqPc/XuNwHXl+axbNFdr28WF+bz451t48S+3cqzQ/L7lupUeK+adx+5nxJ2DKczL1dr25hWLefTqntoSKSHELyQBEEKDivIyJr/1An/p2TbkQ9ezPh3D3/p0ZsPSBSE7R1VtWbWU4Zecw5S3XwzZOX5+lXJRe8aPMPcqRQjxW5IACKFo8Xdfcl+vdox+/K9hm7y2f8dWHrvmIstqBvy8tr//hezZvCEs5ywpKmT8SGMy5cxPPgjLOYWwM0kAhDBp9+b1PH1TP54bejX7tm0O+/kryssYP/IJnhpyBbkH9oXtvPmHD/Hc0KsZ/fhfKSstCdt5Kx3avZOX7htapeWUQohTkwRAiGr6uXxv784s+/5rq7vDyllT+VufzmEpprN67gyGX3I2S6Z+FfJzVaUvD15+npQVFsIkSQCEqKJfyvee9XP53kiRd+gAT9/cj3ceu5+K8jLt7f+8tv/6Szm8d7f29s2SssJCmOe2ugNCRINVs6cz+vG/smPdaqu7ckqVNQPWL55Hdpv2WtvesmoZm1cs1tqmTpVlhaePfYebHn2e1l0vtLpLQkQ8SQCEOI1Du3fy0XOPVKuCn9U2r1gc0cE6lLavXcU/r+tLx4su5ebH/k2tBtlWd0mIiCWvAIQ4CbPle0VkkLLCQpyZJABCHEdH+V4RGSrLCoejNoMQ0UgSACF+snHpQh7uf0HYq85169aNRo0ahe18VmvUqBHdunUL2/kqqzM+MuBCNi5bGLbzChHpJAEQMa8yQDw8oAcbl4YvQNStW5fRo0cza9Ysli9fzuDBg8N2bqsMGDCAJUuW8MMPPzBx4sSwJj4bli7g4avCn+AJEakkARAxK5zle48XFxfH8OHDWbNmDUOGDMHhcJCcnMwHH3zA6NGjSUhICEs/wikuLo6RI0fyySefkJaWBsAVV1zB6tWrefrpp0lMTAxLP6SssBC/kARAxCQryvcCXH755T8HvaSkpN/88yFDhrBo0SLat9e7jM9KrVq1Yv78+dx7772/+Wfx8fE/J0M33ngjDocjLH2SssJCSAIgYszuTessKd/bvn17ZsyYwaRJk8jOPv3StJycHObNm8ewYcPCFhBD5cYbb2ThwoWcddZZp/25evXq8e677zJ37ly6dOkSpt5JWWER2yQBEDGh8OgR3nnsfh7o3Sms5XvT09MZOXIkixYt4oILLqjycT6fj1GjRjFhwgQyMjJC2MPQSElJYezYsbz77rvEx8dX+bguXbowZ84cRo8eTWZmZgh7+Gur585g+KVdePEvt0pZYREzJAEQtnZ8+d4pb78YtlKxbreb22+/nXXr1nHvvfficrlMtXPllVeybNkyevToobmHoXPuueeydOlSBg4caOp4p9PJkCFDWLt2LcOHD8fn82nu4ckFAwFmfTpGygqLmCEJgLC1yW+9wEv3DQ3rU13fvn1ZuXIlr776KjVq1FBur169ekydOpXHHnvMdCIRDi6Xi8cee4wffvjhjK85qiI1NZWnn36aZcuW0bdvXw09rJrKssJfj345bOcUwgqSAAhbS8qoGbZzNWvWjHHjxjF58mRycnK0tu1yuXj00UeZPXu2luCqW/369Zk2bRqPPvqo9iQlJyeHyZMn8+2339K6dWutbZ9OSo3wfXeEsIIkAMLWMrLqhvwcCQkJPProo6xcuZJrr702pOfq0qULS5cuZdCgQSE9T3X069ePpUuXVmuOgxkXX3wxS5cuZeTIkaSkpIT0XADpteuF/BxCWEkSAGFr6bVDlwA4HA5uvPFGNm7cyGOPPRa2d9UpKSl89NFHjB49uloT7HTz+/2MHDmSzz77LGwTFT0eD/feey+bNm1i2LBhIX0lEo7kUQgryW6AwtYysuricDgIBoNa2+3WrRujRo2iU6dOWtutjiFDhtCpUydmz55tyfm7desW1iH542VkZDBq1CiGDBnCvffeq/134HA4SMvM0tqmEJFGEgBhax6fn8S0dPIPH9LSXt26dXnqqafCWrTmdFq3bm1ZEI4EnTp14ocffmDSpEkMGzaMrVu3amk3Kb0GHp9fS1tCRCp5BSBsL0PDu9yTle8VkUN3WeGMLHn/L+xPEgBhe+mK73LPVL5XRAadZYVVvzNCRANJAITtqUzmGjZsWJXK94rIUVlW+J577jHdRrq8/xcxQBIAYXtpteuYPjY/P19jT0Q45eWZ3+RJXgGIWCAJgLA9lTkAO3fu1NgTEU4qf7t0SQBEDJAEQNieyvtcSQCil8rfTmoAiFggCYCwPZWbuSQA0ev/t3ffcVlX7R/AP/fNkqUgCoorJyiuJMuNA8tduXKCWlqKCa40J/i4c+JIfdQScqemmGYOzD1SUzMBF0mCGDJkybx/f/DY4+PPxfece3/erxevVwbnOpcg9/e6z/d8r3Pv3j3FY0VuGxEZC330AVgPIPJ5n+jYuctbDb3f6fmigTVq1tJaUmS6RLoBpqenIy0tTSetZ0meR48eCe3fKO3GAoBMnz4KgG0v+sSmbTuHZDzOf2EBQKRECXsH2Jd0QuajVEXj//rrLxYARiYuLk7xWPtSzihhL95LgMjQ8RYAmQXuAzAvvP9P9GosAMgssAAwL0JPAGjxACkiQ8ICgMyCi8CLOgsA48MVAKJXYwFAZkHkXZ3IbnLSDz4BQPRqLADILPAWgHkRWwFgEyAyDywAyCzwFoB54R4AoldjAUBmQWQFgLcAjA/3ABC9GgsAMgsiBUBycjIyMzMlZkPalJWVhZSUFMXjeRQwmQsWAGQWHty9IzSeqwDGQ/RnlfjnbUmZEBk2FgBkFsJmjBcaz30AxkOkCyAAfDNtNDQajaRsiAyXPloBE+nUyd1bcf3sCaEYxlwApKWlISYmBvHx8cjIyEBmZiZSUlKQkZEBAHBwcICzszPs7e3h4OAAd3d3eHh4oGTJknrOXBnRn1XMhTM4HbEdzbr1lpQRkWFiAUAmLSc7C5vnThGOo1Ybx2JZbGwsIiMjcfbsWURHRyM6OhoJCQmKYpUvXx6enp6oVasW3nnnHbRt2xZVqlSRnLF8FhYWwjE2zZkM7/ZdYGNrJyEjIsPEAoBMWsSqRUiKF1sSrlOnDvr06SMpI7kyMjIQERGBw4cP48iRI7hzR2yvw9MSEhKQkJCAyMhIrF69GgBQrVo1tG3bFr6+vujSpQvs7e2lzSdLnz59MH/+fFy5ckVxjKT4OESsWoSeo8WLRyJDpY8CoDeAqs/7RL/e3d9q6P3OCwd27vYhqlStpq28yMQkxcchYvUi4ThLly6FpaXh1MqFhYU4deoUwsPDsXnzZqFjb4vr9u3buH37NtauXQtbW1t06dIFAwcORMeOHQ3me2RhYYFFixbB19dXKE7E6kVo/ZE/yrhXkpQZkWHRx2/sEADvPe8T+3/ci/0/7n3hQI/aXiwA6LVtnD0JOdlZQjE+/PBD4QuJLKmpqVi+fDlWr15tEHsSsrOzsX37dmzfvh2VKlXCp59+ioCAADg5Oek7NbRr1w4ffvghdu3apThGTnYWNs2ZjFHLwiRmRmQ4jOPGJlExxVw4gzN7vxeKYW1tjXnz5knKSLmkpCQEBwejatWqmDp1qkFc/J8VFxeHKVOmoHLlyggMDFS870CmBQsWoESJEkIxTu3ZJryBlMhQsQAgk6MpLMS3wWOFH+UaO3YsatasKSmr4ktPT8f48eNRpUoVhISEIDU1VW+5vK709HSEhoaiZs2amDBhwj9PGuhDtWrVMHr0aOE4G0LGobCgQEJGRIaFBQCZnCNbv8XtKxeEYri5uWHixImSMiq+iIgI1K1bFwsWLEBWlthtDH3IzMzE/Pnz4eHhgbAw/S2hT5o0Ce7uYqf7xV77DUe38zYAmR4WAGRSsjPTsX1hiHCcefPm6eU5+Bs3buDdd99Ft27dcPfuXZ3PL1t8fDz8/f3RoUMH3Lx5U+fzOzg4YPbs2cJxtsyfhqz0NAkZERkOFgBkUnYsnoXUvxOFYnh7e2PgwIGSMnp9YWFhaNSoEQ4ePKjzubXtwIEDqF+/PtauXavzuf38/PDOOy9+uuh1PHr4N3aGzpWUEZFhYAFAJuN+7C0c2PC1UAyVSoUlS5botPFPdnY2AgMD4e/vr9d75tqWnZ2NoUOHws/PT6eHKz35mapUKqE4P32zAvG3YyRlRaR/LADIZGwIGYe83ByhGAMGDECLFi0kZfRq169fx1tvvYXQ0FCdzalv4eHhaNKkCaKjo3U2Z5MmTTBgwAChGPl5ufhupv72hRDJxgKATMLVE0dw6ch+oRh2dnaYOXOmpIxe7dy5c2jVqhX++OMPnc1pKH7//Xc0a9YMp06d0tmcc+bMgYODg1CMi4f34bejByRlRKRfLADI6BXk52NDyDjhOJMmTULlypUlZPRqhw4dgq+vL5KSknQynyFKTk7Gu+++i3379ulkvgoVKkh5siNsxhcoyM+TkBGRfrEAIKN34NuV+CtG7F105cqVpTwz/jrCw8PRqVMnnbbwNVSZmZn44IMP8N133+lkvnHjxqFGjRpCMeJvRePAhlWSMiLSH8No3k2kUEpiAnaEzhGOs3DhQtjZaf/kt61bt2LQoEEoLCzU+lxPs7Gzh3u1WnCtXBUOTs6wtXeEjV3RQT45WZnIzkxHRkoyEu/eQcKdG8jJ0t0mvby8PPj7+8PGxga9evXS6lw2NjaYO3cuevbsKRRnx9LZaNqlJ5zdykvKjEj3WACQUbofews/fbsSkVu/Fb5YtWnTRviC8DoOHToEPz8/nVz8K9TwhFczH3g19UGNhm/Dxb1iscYnxcfh5qVzuHb6F1w7eVTru98LCwsxcOBAuLi4oG3btlqdq0ePHmjfvr3Q45aZaSkY1cITTbr0wPvDx6FirToSMyTSDRYAZFSizp/Cnq8X4NKR/cKtfoGik+MWL14sIbOX+/XXX9G9e3fk5uZqbQ4X94po/n4ftP1oEMpVFVvmLuNeCWXcK6FJ5x4AigqCU7u34vDm9Uj887aMdP+fnJwcfPDBBzh69CgaNWqklTmeWLx4MRo2bIj8/HzFMfJyc3B85yYc37kJHm81Rbfh49CoXSfhxw2JdIV7AMjg5eXm4NiOjRj/rjeCe7bFxcP7pFz8AWDYsGFo0KCBlFgvcvfuXXTu3Flr9/y9mvpg8nc/YvmpG+g3cabwxf95yrhXQrfh47Dkl2uYFL4XdZq0lD4HUHSWQKdOnbR+4JGXlxc++eQTafGifz2Nrz7ugdFt6mH/+uXCp1AS6QILADJYaUkP8P3imRjxTjWsHPMx4qKvSY3v5OSEGTNmSI35rLy8PPTt2xcPHjyQHrtu8zaYsesXTN1yAPVattPJO0+VSoX6rXwxbetBhOyIhFdTH+lzJCYmol+/fkLvzl/HrFmz4OLiIjXm/Ts3sSFkHIY3ropvg8fiYbzhndxI9AQLADI4sdd+w7+/DMDIZrXw/ZKZSE9+qJV5pk+fjjJlymgl9hOTJ0+W/qy7k2s5jFi0DlM27UetRmItbkV4vNUUU7ccwPh1O4q9x+BVjh8/junTp0uN+azSpUtjypQpWomdlZ6Gn75ZgcBWdbBkRH/EXDyrlXmIRLAAIIOgKSzEhUM/Ylb/TpjYqQkOb1qHvJzHWpvP09MTAQEBWosPAPv27cOCBQukxmzT2x+LI6+gVY/+UuOK8PbtjK9+vgCfnmKd9p41d+5cHDig3aY7I0eORN26dbUWPz8vF2d+3IFpH/pgUpdmOLZjIwq0vLJB9LpYAJBeZWem4/CmdRjbriG++rgHrp44opN5Fy1aBCsrK63FT05OxuDBg6XtVShh74CAxevx6VerYeug+1MKX8XOsRSGL1yL4QvX/vN4oajCwkL4+/sjNTVVSrznsbS01MkmUAC4ffUiVo75GKNb18WerxcgMy1FJ/MSvQgLANKLB3fvYNPcKRjZpCb+/WWATg9Z6dKlCzp27KjVOSZNmiTtvn+ZCpUxc/dxtOzeT0o8bfLpOQAzfzgm7ZZAYmIiJk+eLCXWi/j6+qJLly5aneNpD+Jii/7tN61V9G//lu7ORCB6GgsA0qmo86ewZER/jG5Tr+hd0CPtvbt7Hmtra+nL8s/69ddf8e9//1tKrIo1ayPk+yOoWLO2lHi6UMnDC7N2n0Dl2vWkxFu1ahXOnTsnJdaLLFmyBDY2Nlqd41n/rH75von5Q7rrbPWL6AkWAKQze1YtRHDPtjjz4w693Qf9/PPP4eHhobX4BQUF+PTTT6U0+6lW3xshO45I32CnC06u5TBtywFUqyf+PH9hYSFGjhyp1QZK1atXx8iRI7UW/2U0hYW4eHgfZvXvhIjVi/SSA5knFgCkM7nZ2Xqd39XVFVOnTtXqHBs2bMDFixeF47hXq4UvN+yBfSlnCVnph4NTaUzcsFtKX4Lz589r/byA6dOno3x5/bb2zcli/wDSHRYAZBacnZ2xfPlylCpVSmtzFBQUYO7cucJxSpdzx6Tv9sKxtNxn1PWhpEtZTArfCyfXcsKxZs+erdVVAEdHR4SGhsLZ2XiLLqLiYAFAJq169epYsmQJ4uLitH7QzNatW3Hjxg2hGBaWVghauQllKujmWGJdcK30Bsat2Q4LS7GnLqKjo/H9999Lyur5evbsifj4eGzYsAFeXl5anYtI31gAkElq3rw5tm3bhujoaAQGBsLeXs6jaS+i0WikvPvvN3Emank3kZCRYanxZmN8NE68sc/s2bOlPVr5IiVKlICfnx+uXr2KgwcPokuXLuzvTyaJBQCZDBsbGwwcOBBXrlzBiRMn0KtXL1hYWOhk7r179+Lq1atCMd5s0wGdPhklKSPD0/WzsWjg014oxuXLl7F//35JGb2cSqWCr68vIiIiEBUVhVGjRunkyGgiXWEBQEbPzc0NEyZMwO3btxEWFoZ69eQ8flYc33zzjdB46xK2GPyvJSb9TlOlUmHonBWwsRW7iIp+r5WoVasWli5ditjYWMydOxcVKxrfkxlEz2IBQEarYcOGWL16Ne7cuYO5c+fC3d1dL3kkJydj3759QjG6j/oSrpXekJOQAStToTK6DR8rFGPPnj14+FA750O8StmyZTFhwgTcunUL27ZtQ5Mmpne7hswHCwAyKmq1Gl26dMHBgwdx6dIlDBs2DLa2tnrNafPmzcjJyVE83rVyVXQZFiQxI8PWbfg4oU2Oubm52L59u8SMis/a2hq9evXC6dOncfz4cfTq1QuWlpZ6zYmouFgAmCstb6SSrWTJkggKCsKNGzcQEREBX19ffaf0j7CwMKHx7w8fB0sra0nZGD4raxt0+2yMUIzw8HBJ2Yhr0aIFtm3bhqioKAQGBsLR0VHfKRWTcb0WkDwsAIyYyL3URyn6WUJVKjAwEIsXL0a1atX0ncr/iI+PF2pTW7qcO1pJPkXPGLT5aJBQb4DTp0/j/v37EjMS9+SR06Ag41rNSUv6W/HYEvYOEjMhXWMBYMRK2Ct/pxEX9bvETMzXkSNi/ds7DBoBK2vd9qA3BFY2JdBh0AjF4zUaDSIjIyVmZL7uCrwW2Aq8BpH+sQAwYqXLKd/0du7Abmi02FXNXIhchFRqNVp80FdiNsalVY8BUAs8pskCQFx2xiNcOX5I8Xhngdcg0j8WAEbMvXotxWPv37mJYzs2SszGPImsANRv5YvS5StIzMa4lC7nDq+mPorHi66+ELD764XIycpUPN69mvLXINI/FgBGrEqd+kLjN4SMw72bUZKyMT+xsbGIjY1VPL7F+33kJWOkmgt8D27duoW7d+9KzMa8XD1xBBGrFioer7awQOXadSVmRLrGAsCIvVGngdBpcVnpaQjp3R5R505KzMp8XL58WWh83eZtJGVivEQ7A165ckVSJubl9N7vsWBoL6Fjud/wagj7kk4SsyJdYwFgxNQWFqjfSuxxuEcP/0bIR+2xImgwos6dRGFBgaTsTF90dLTisRVr1oazm36PnjUEzm7lUb5aTcXjRX4G5iYvNweXj/6Muf7vY2nAAKGlfwBo6POupMxIX9i5wsi1/LAvTkeINUXRFBbi+K7NOL5rM6ysbVCqjCvUWmhqkpmWKj2mPolcfOo0bSUxE+NWt1lrJNxWdopiVJRp3cLa/80KHNspf29Ofl4u0v5+gIL8PGkxW3Q33w2spoIFgJFr4NMepcu5I/l+vJR4ebk5SIqPkxLL1IkUAFVqi+3fMCWVPZWf3RATEyMxE/3LTEtBZlqKvtN4Jc/GzbgB0ATwFoCRs7C0Qpdho/Wdhlm6cUPZu1YAKM8Xz3+41/BQPNbUCgBj8X7AF/pOgSRgAWAC2vX72KwfJ9OX5ORkxWMrCFz0TI3IO0mRnwEpU/PNt9Gw9Xv6ToMkYAFgAmxs7TBwyjx9p2FWsrOzka9wB7WllTVKlXGVnJHxcnItBwtLK0Vjc3Nz8fjxY8kZ0Yuo1Gr4By806WOrzQkLABPRtEtPNH6vm77TMBvp6emKx9o6sH/601QqlVBP+YyMDInZ0Mt0HTYaNRo21ncaJAkLABPy2VerUbZiFX2nYRZECgCRMxxMla1AAfDo0SOJmdCL1PJugo/GB+s7DZKIBYAJsS/ljAnf7IKDU2l9p2LyMjOVP0MtcoqjqeIKgGFzrVwVY1ZvVXyrhgwTCwATU7FWHYxftwO2DiX1nYpJs7FRfoJffl6uxExMQ26O8vv4JUqUkJgJPat0OXdMCt8Lp7Ju+k6FJGMBYII83mqKkB1H2GlOixwdlS/jZ2cov31gqh5nKv+eiPws6OUq1PDEjF2/oNwb1fWdCmkBCwATVdmzLmb+cBwebzXVdyomSeSi8ziTS9bPyhZYxi9Zkqtd2vDWu10xY2ckyrhX0ncqpCUsAEyYi3tFTNv6M3qNmQorGy6TymRvb6/4Uaic7CwWAU/JzniEPIW3ANRqNezsuKdCJgen0hg6ZwXGrtkmdNgYGT4WACbOwtIKPQInY8HBi2jWrTfUFhb6TskkqNVqoVWA+NvsYPdE/C3l34uSJUvymXRJrGxK4F2/z7DoyBW06/cxv69mgAWAmXCrUg2jloVh4aHf0HHISJR0KavvlIzeG2+8oXis0sNvTFG8wPeiatWqEjMxT2UrVkH3UZOw7EQUhvxrCUq6lNF3SqQjPAzIzJSvVhP+0xdgwOQ5iDp/CtdOHkX0hdOIvxWNlMQEfadnVDw9PRWfR//XjeuSszFe9wS+Fx4ebKlcHCq1GmXcK8G9hgdqv90CdZu3QfUGb/HdvpliAWCmLCyt4NXUB15Nff75fznZWch6lIbHmRnIFtiV/SKHN67F4c3rpcfVF5GLT9S5ExIzMW7Xzx5XPNbUCoB2fYegXf9PpMe1cywFWwdH2DmW5H4g+gcLAPqHja2dVpvUXHRz11psfRC5+Ny4eA45WZmwsbOXmJHxeZyZgZu//ap4vKenp8Rs9M/ZzR3V6jXSdxpkJrgHgEih2rVrKx6bn5eL6F9PS8zGOF0/dwIF+XmKx4v8DIjMHQsAIoUaNGgAJycnxePP7tspMRvjJPI9HK/08gAAH1NJREFUcHJyQt26dSVmQ2ReWAAQKWRhYYGWLVsqHn8q4nvkPs6WmJFxyX2cjXP7dyse36ZNG1jwsVYixVgAEAlo27at4rHZGY9w4eBeidkYl/MHdiMrPU3x+DZt2kjMhsj8sAAgEiB6Edq3bpmkTIzPgQ2rhMaLFF9ExAKAjMSBAwdw/Ljyx8W0pX79+qhYsaLi8TcuncMfZ45JzMg4XD1xBDEXzigeX6VKFdSpU0diRnIcO3YMBw4c0HcaRK+FBQAZhXPnzqFVq1Zo1KgR1qxZg8ePlR8fK5NKpcKAAQOEYuxaNldSNsZj17I5QuP79+9vMM1rcnNzsX37djRt2hQ+Pj44d+6cvlMiei0sAMioXLp0CZ9++ineeOMNBAcHIykpSd8pYeDAgULjr544gktH9kvKxvBdOLgXf5wRW80R/Z7LkJaWhqVLl6JGjRro3bs3zpxRvqJBpA8sAMgoJSYmIiQkBBUrVoSfnx+uXr2qt1zq1KkDb29voRjfBo9VfCKeMcl9nI0NIeOEYrzzzjt6bQAUExODwMBAuLu7IygoCHFxcXrLhUgECwAyajk5OQgPD0f9+vXRokULbN++HQUFBTrPw9/fX2h84p+3sWv5fEnZGK6dy+biQVysUAx9vPvXaDQ4dOgQunbtCk9PT4SGhiIrK0vneRDJxAKATMbJkyfRu3dveHp6YunSpcjMzNTZ3EOGDEGZMmKnqO1eOR9R509JysjwXD97AhGrFgrFcHFxgZ+fn6SMXi0nJwdhYWGoV68e2rdvj71790Kj0ehsfiJtYgFAJufmzZsICgpChQoVEBgYiLt372p9Tnt7ewQEBAjFKMjPR+jnA5Ge/FBSVobj0cMkLBvlh4L8fKE4QUFBcHR0lJTVi92/fx/BwcGoUKEC/P39ce3aNa3PSaRrLADIZKWlpSE0NBQ1atRA3759cfPmTa3ON2rUKOGLU3LCPSwL9Bfqj29o8vNyEfr5QCTfjxeKU6pUKYwcOVJSVs938+ZN9O3bF5UrV0ZISAgePjS9YozoCRYAZPLy8vKwZcsWDBw4UKvLt6VLl8bw4cOF41w5dggrxwyFprBQQlb6pdFo8O+JI/D7yUjhWCNHjhQ6e+FVNBoNBg0ahC1btiAvz3QKMKIXYQFAZuPMmTP47rvvtDrHF198ARcXF+E4J3dvQfisiRIy0q+wGePxy/fi3/OyZcti7NixEjJ6sfDwcJw8eVKrcxAZEhYApDOte/uhw+AA2Npr/x7ui3z55ZfIyMjQWnwXFxfMmSPW5OaJfWtDsX5qoFGuBBQWFGDdlFHYv365lHjz58+Hs7OzlFjPk5GRgUmTJmkt/qvY2juiw+AAtO6tuw2ORCwASGfKVKiMQcELsfL8bfhPX4CyFavoPId79+5h7lztdt77+OOP0bRpUymxfg5bjUWf9TGqHgF5uTlYNsofB8PXSInXvHlz4ccsX2XOnDm4d++eVud4Hme38ugZNAXLTkVjUPBClKlQWec5kPliAUA6Z2vviI5DRiL0+HWMX7cD9Vro9lCXBQsWaHVDoFqtxurVq2FpaSkl3vkDezC9Zzs8uHtHSjxtSoqPw78+ehen934vJZ6lpSVWrFih1ba/d+7cwaJFi7QW/3mq1WuEEYvWYfmpG+g5egocnErrdH4igAUA6ZFKrYa3b2dM3rgPc348jXb9PoaVTQmtz5uTk4OJE7V7f71evXpS57h95QImdW1u0McHnz+wGxPea4yYi2elxZw8eTIaNGggLd7zjB8/XidnS1hYWqFJ5x6YsesXzN57Cq169IeFpCKRSAkWAGQQqtZ9E0PnrMCyk9HoGTQFjqXFN9K9zI4dO3Dw4EGtzhESEoJ27dpJi5eRmoyvPumJ+UO6IzlB98vVL5L6dyJWjB6CRZ/2QeajVGlxfXx8MHXqVGnxnicyMhI7duzQ6hx2jqXQYXAAQo9fR9DKjajV6B2tzkf0ulgAkEFxKuuGnqOnYOXZ2xixaB0qeXhpba7Ro0cjX7Axzcuo1WqEhYWhbNmyUuNePLwP49o3wk/frEB+Xq7U2MWRl5uDfWtDMbp1PRzfuUnqI5Zubm7YvHkzLCwspMV8VkFBAUaPHq21+OWq1oD/9AX4+vwdDApeCBd35cdGE2kDCwAySFbWNmjVoz+++vkCgr8/gkbtOkm/D3zt2jWsXbtWasxnubu7Izw8HGq13F+1rPQ0fBs8FqNa1sb+9cuRk627vvQ52VnYt24ZRrXwRNi/vkB2xiOp8dVqNb777juUL19eatxnrVmzBpcvX5Ye1+Otphi/bgcWR15FxyEjYWNrJ30OIhlYAJDB82zcDF+s34nFkVfRYXCA1BfUyZMna73b23vvvYfFixdrJXZywj1sCBmHz5vXQtiM8Yi99ptW5gGA21cvYkPIOIxsVhNhM8YjJTFBK/MsW7YMvr6+Won9REpKCqZNmyYtnpW1DVp274evfr6AkB2R8PbtrNWNi0QycAcKGY1yVWtgUPBC9B47Db9sD8fefy/Bw/i/hGImJydj5syZWrtAPzFq1CgkJiZi9uzZWon/6GES9q1bhn3rlqGShxcatesEr6Y+8GjcTHHBlJOViajzp3Dt1FFcPLwPf924Ljfp55g6dSpGjBih9XlCQkKQlJQkHMeprBt8+w/Fe/7Dtb5vhUg2FgBkdOwcS6HjkJFoP3AYju/ajDUThgs1y1mxYgWGDRuG2rVrS8zy/5s5cyYSExOxbt06rc4TF30NcdHXsHvlV7C0skbl2vVQvmpNVKjpAbfKVeHg5AIbO3uUsLcHADzOzEROZgYy0pKR+Odt3LsZg4TbMbgb9btO9xgMHToUM2bM0Po8169fx8qVK4ViqNRqfDpvFVp27wsLSytJmRHpFgsAMlqWVtZo09sfUedO4Jft4Yrj5OXlYdSoUVp/KkClUmHVqlXIyMjA1q1btTrXE/l5ubh95QJuX7mgk/mU6tOnD77++mudzDVmzBjhXv+tew5k1z4yetwDQEav38RZsHUoKRTj0KFD2LtX+8/YW1paYvPmzRgzZozW5zIWAQEB2Lhxo1Z3/D8RERGBn376SSiGrb0jPhofIikjIv1hAUBGr1QZV3wQMF44TlBQEHJyciRk9HIqlQoLFy7UektiQ6dSqTB9+nQsX75c+lMSz5Obm4tx48YJx/lw1EQ4uZaTkBGRfrEAIJPQeWggylWtIRTj1q1bWLZsmaSMXm3ChAlYs2YNrK2tdTanobCxscG6desQHBysszmXLl2KmJgYoRhuVaqh45CRkjIi0i8WAGQSLK2s0f9L8R32M2bMQEKCdh5ve56hQ4fi1KlTqF69us7m1LcqVarg6NGjGDx4sM7mfPDgAWbNmiUcx2/qfFhZ20jIiEj/WACQyWj8Xjc08GkvFCM9PV3q8+Gvw9vbGxcvXsRHH32k03n14YMPPsClS5fQpEkTnc47adIkpKWlCcWo27wNvNt3kZQRkf6xACCTMnDqfOHHstavX4/z589Lyuj1lCxZElu2bMHKlStRqlQpnc6tC05OTli1ahV27doFZ2dnnc596dIlfPvtt0IxLCwt4TftKzkJERkIFgBkUirWrA3f/p8IxSgsLERQUJDU3vava/jw4YiKisLAgQNNppNcr169EBUVhU8//VQv8wcFBaGgoEAoRvuBn6KyZ11JGREZBhYAZHJ6j50m3JXt1KlTOntW/1nlypVDWFgYDh8+jDp16uglBxm8vLxw9OhRbNu2DW5ubnrJYcuWLTh27JhQDAen0ugROFlSRkSGgwUAmRz7Us7oGTRFOM748eORmZkpISNl2rRpg6tXr2LPnj1o1KiR3vIorrp162LDhg347bff4OPjo7c8srOzMXHiROE4vcdOh6NzaQkZERkWFgBkktoPGCa8ZPvXX3/hq6/0e99XrVaja9eu+PXXX7Fnzx68/fbbes3nZRo0aIANGzbg8uXL8PPzg6WlfhuNzps3D3/++adQjIo1a6Ndv48lZURkWFgAkElSW1jAf/oC4Tjz588XvojIoFKp0LVrV5w9exa///47JkyYAFdXV32nBWdnZwwbNgzHjx/HpUuX4Ofnp5OmPq/y119/YcEC8Z+/37SvYKHnQoZIW/T/m0qkJV7NWqPxe92EYshaRpbJy8sLc+fORVxcHH744Qd89NFHKFu2rM7md3V1Rd++fbF7924kJiZi9erVaNGihUFtWpRx+6bxe++jfivtHktMpE8sbcmkDZg8F79FHkBervIWv1u3bkVAQABatGghMTNx1tbWeP/99/H+++9Do9Hg6tWriIyMxJEjR3D27FkkJiZKmcfNzQ3vvPMO2rZti7Zt26Ju3boGdbF/1smTJ4U3cFpZ22DA5DmSMiIyTCwAyKS5VamGTp+Mwu6Vyu/lazQa/PHHHwZXADxNpVKhfv36qF+/PgIDAwEAqampiImJQVRUFKKjo5GQkICMjAykpKQgIyMDGRkZAAAHBwc4ODjA2dkZjo6OKFeuHDw8PODp6YlatWrByclJn3+1Yrt27ZrwI5ydhwbCrUo1SRkRGSYWAGTyPhw5Acd2fIeUROUtfitWrCgxI91wcnLC22+/bdAbB7VB9GdVqowr3h8hfmgQkaFjAUAob6tGKStlS7r3swuRmqf7hjnFUcLeAX3Gz8DX44YqjmGMBYC5qlChgtD4fl/OFj5eWhecrFQoZ6tsG1dangYJ2YWSMyJjwwKAUNlOjTfslZ3FnluYj9Q8sS5rutCkSw+hAkD0okK6I1qsNencXVIm2lXaRo0GTspewmMzC1gAEJ8CIPMgsvxva2sLFxexzoKkOy4uLrCzs1M8PvXBfYnZEBkuFgBkFpLv31M8lsv/xkdkxeZhgvJ/K0TGhAUAmQWRF3UWAMZH5GeWfP8viZkQGS4WAGQWkhOUv6izADA+QgUAVwDITLAAILOQfD9e8VgWAMZHbAVA+b8VImPCAoDMgsgeAD4BYHy4B4Do1VgAkFngHgDzIrYCwAKAzAMLADIL3ANgXkR+Zg8F/q0QGRMWAGTyCvLzkPbwb8XjWQAYH5GfWVrSA+Tn5UrMhsgwsQAgk5d8Px6aQmVdz6ytreHq6io5I9I2V1dX2NjYKBqrKSxkMyAyCywAyOSJ3P+vUKGCQR99S8+nUqlQvnx5xeO5EZDMAQsAMnm8/2+exHoBcB8AmT4WAGTy2AbYPAltBOSTAGQGeBogISG7EDkKDwZLyzXso4ABNgEyV6beDCgtV4PodGUncSYr/YUnk8ICgHA3qxB3s0z3BUHkxXzLli3w9vZG7969uRfASGg0Gmzbtg1bt25VHMMY2gE/zC3Ew1zT/b0l7eMtADJ5D+PjFI+Ni4tDnz590KRJE5w5c0ZiVqQNly5dQuvWrdGnTx/ExSn/uXMPAJkDFgBk8mTczz137hyaN28OPz8/JCYmSsiKZHr48CECAwPRuHFjHDt2TDwe9wCQGeAtADJphQUFSPtbzgW7sLAQ4eHh2LNnD6ZNm4bPP/8cVlZWUmIrlZeXJ/ROV0SlSpUM4u+/bNkyzJgxA2lpadLipj64j8KCAqgtLKTFJDI0LADIpKU+uI+C/HypMdPS0jB27FisWrUKs2bNQq9evaTGf12xsbHo168fTp8+rZf5vb29sXnzZtSsWVMv8x86dAhBQUG4du2a9NgF+flI/TsRpcu5S49NZCh4C4BMmjaXcm/cuIHevXujffv2WrkIvcz27dvx5ptv6u3iDwAXLlyAt7c3wsPDdTrvjRs30LVrV61/341hIyCRCBYAZNJ0cbLboUOH8OabbyIwMFDqMvTzZGdnIzAwEL1790ZqaqpW53od6enp8PPzg5+fHzIyMrQ6V0ZGBoKDg1GvXj3s3btXq3MBQHIiCwAybSwAyKTp6l1cXl4eQkNDUb16dSxduhQFBcqez36ZixcvomHDhggNDZUeW1R4eDjq1aunlSclCgsLERYWhho1aiAkJAQ5OTnS53gergCQqWMBQCatgU97eDX10dl8Dx8+RFBQEN5++20cP35cSkyNRoPFixejWbNmiImJkRJTG2JjY9G6dWssXrwYGo2cBlHHjx9H48aN4e/vr9OnL7ya+qB+K1+dzUekDywAyKS5V/fA1C0HMH7dDrhWrqqzeS9evIhWrVqha9euiI2NVRwnKSkJ3bp1w5gxY3T2zldETk4OxowZg3fffRf37ys/Ue/evXvw8/ODj48PLl68KDHDl3Nxr4gRi9Zh6pYDcK/uobN5ifSBBQCZBW/fzlh05DL8py+Arb2jzubdu3cv6tSpg4kTJxb7HnlkZCQaNGigk/vdsh06dAgNGjTATz/9VKxx2dnZmDdvHjw9PREeHi5tJeFVbGzt0DNoCpYc/R2tevTXyZxE+sYCgMyGpZU1Og4ZiUWRV9Cu38dQqXXzz//pi1pYWNgrL2r5+fkIDg5G+/btER9v+D3pX+TBgwfo1KkTAgMDkZub+8qvj4iIUFwsKaVSqdCkcw8sPPwbeo6eAiubEjqZl8gQsAAgs+PsVh5D56zArN3HUcu7ic7mvXfvHvz9/V/aVvju3bto3bo1QkJCtLKRUNc0Gg1CQ0PRokUL3Lp167lfc+nSJfj4+KBbt25Ct0uKq1q9Rpi+/TCCVm5EmQqVdTYvkaFgAUBmq1p9b4TsiETQyo1wcdfdqX8vaiu8c+dONGzYECdPntRZLrpy/vx5NGrUCJs2bfrn/8lu3/u6nFzLFRWAe07As3Eznc1LZGjYCZDM2pMl4Aat38WuZfOwf90y5OVqf7Pds22Fr1+/jrVr12p9Xn169OgR+vfvj8jISNSuXVt6+95XsbK2QcePP8eHn0/Q6T4QIkPFAoAIgK29I/pNnIl2fYdg87ypOPPjDp3M+6StsDnRR6FTr0VbDApZhAo1PHU+N5Gh4i0Aoqe4VamGoJUbMXXzT6jsWVff6ZAg92q1MOHbHzB54z5e/ImewQKA6Dm8mrXGnB/PYOicFSjpUkbf6VAx2ZdyRr+JMzH/51/xZpsO+k6HyCDxFgDRC1hYWqJdv4/xdscPsX1RCA5tXItCI9iZb2VTAs5u5aXGTElMQF7OY6kxtUFtYQHf/p+g15jpcHQure90iAwaCwCiV3B0Lo0h/1qKDoNGYMOM8bh89Gd9p/RCFWvVQeDycFTy8JIaN/52DEJH+iH22m9S48pUp0krDApeiMq16+k7FSKjwFsARK/JvboHvtywR+dthV9Xy+79MGvPCekXf6DoXvq/fvgFHQYHQKVSSY8v4kn73mlbf+bFn6gYWAAQFdP/tBV2KKnvdOBY2gXj1+1AwOL1sLG109o8VtY2GBS8EF+GRaBUGVetzfO62L6XSAwLACIFnrQVXqzjtsLPqtOkFebtPw9v3846m7N+K1/MP/Cr3k7L+6d975HLbN9LJIAFAJGAf7rK6bitsNrCAj2DpmDKpv0oXc5dZ/M+UaqMK74Mi4D/9AWwsLTS2bzV6jVC8PdHitr3ulfS2bxEpogFAJEET7cV1vaFycW9IqZt+Rk9R0+B2sJCq3O9jEqlQschIxGy44jW90Q83b7X462mWp2LyFywACCS5H9OlgvSztJ04/e6Yd7+c/B8u7n02ErVaNgYc/edQbNuvaXHtrC0QofBAXq/1UJkivjbRCSZjZ09eo4u2pzWsns/KTGtbErAf/oCjF2zDQ5Ohvd8u51jKYxaFoYRi9bBxs5eSsxG7Tph0ZHLGBS80CA2WxKZGhYARFri4l4RAYvXY+qWA0KPp1Wo4YlZu4+j45CRErPTjlY9+mN2xEmhv++T9r1frN8JtyrVJGZHRE9jAUCkZV5NfTBn72lFbYVbdu8nfEHVtScFS4fBAcUax/a9RLrFAoBIB560FV4ceRUdBgfAwvLlTTifLKkHLF4vbUldl6xsSmBQ8MLXumWhUqvRsns/LI68im7Dx8HSylpHWRKZNxYARDpkX8oZg4IX4qufL6Bh6/ee+zXa3FSna6/atOjV1Afz9p1FwOL1PHSJSMdYABDpgXt1D0zcsPt/2gqrVCp0GBygk8fqdOmfxxaD/vvY4pP2vaL7I4hIOR4GRKRH3r6dUb9lO+xfvxw13nwbdZq00ndKWqG2sEDP0VNQp2kr3Lx0Dh2HjGQHPyI9YwFApGdWNiXQbfg4faehE3WatDLZIofI2PAWABERkRliAUBERGSGWAAQERGZIRYAREREZogFABERkRliAUBERGSGWAAQERGZIRYAREREZogFABERkRliAUBERGSGWAAQERGZIRWAgzqe800ALkoGetWrj9KllR8Zev9+Am5EX1c01r5sOZSpXlvx3E84WKigVgmHISKi54iL+QOpD+4rGlunTh24u7srnjspKQm//fab0uEPAVxSPLkCKgAaXU5IRERE+sdbAERERGaIBQAREZEZYgFARERkhlgAEBERmSEWAERERGaIBQAREZEZYgFARERkhlgAEBERmSEWAERERGaIBQAREZEZYgFARERkhlgAEBERmSEWAERERGbIUmTwpNmhUKvFagjbEtZwsLMRikFERGRuCgsLMPqzIYrHCxUAdd9sDAsLC5EQcLQvASdHW6EYRERE5qagoEBoPG8BEBERmSEWAERERGaIBQAREZEZYgFARERkhlgAEBERmSEWAERERGZIDaBQ6WCNRvHQp6NIiEFERGReCguFrsGFagCZSkfnPH4sMjkAQMPrPxERUbFlZSq+fANAuhrAI+WTZ4hMDgCQsohARERkZjLFrsHpagCKI/ydmCAyOQCgkBUAERFRsSXcixMZnq4G8LfS0fFxsSKTAwDyC1gAEBERFdefsXdEhv+tBnBD6ehb0X+ITA4AyBfsZUxERGSOrl+9LDI8Rg0gWunoq5fOi0wOoGgTYH4+VwGIiIiK48L5syLDo9UAopSO/jsxAXGxt0QSAAA8zs0XjkFERGQubkZH4X78PZEQ0WoA50QiHDu0T2Q4ACAnL084BhERkbnYH7FLZLgGwHk1gAQIrAL88vNe5ObkiCSCnMd5bAdERET0Gh4/zsb+iB9EQvwB4P6TVsCRSqOkpabgyP7dIomgQKPB4xyuAhAREb3KD9u3IDUlWSTEEeC/ZwEcEkpmy7fIzhLqSISs7Fyh8URERKYuI/0Rvlu/RjTMIeC/BcA+AKlKI6UkJ2FbmFhCWTm5KBDra0xERGTS1ixfguSHSSIhUgAcAP5bADwGsF0k4v5dW3H1osB+Qg2QniF+tgAREZEpunj+LHZu3SQaZguAHOB/jwMOE4mo0RRixfxgpCY/VBwjI5urAERERM9K+vsBpn0RhMJC4eZ53z35j6cLgBMALohETUlOwqwvP0dmRrqi8RqNBmnp2SIpEBERmZTMjAyMCxgquvQPAL8BOP3kDxbPfDIFQC+R6GmpyYj54yrebtEGVtbWxR6fl1+AEtZWsLRQv/qLiYiITFhGRjrGBwzDH78Ltf19IgDA9Sd/UD3zSTWAawA8RWd5o3otTJy5GM4uZYs91srSAq4uJaF+NjsiIiIz8feDRIwd8Qluxihu1fO0awDqA/jnPvuzKwAaFJ0OKLQKAACpKQ9x/MhPqFrDA67lKxRrbGGhBgUFBbArUfwVBCIiImN37tQJjP5sCOL/Ejry92nDUdQA6B8veo/9M4D2MmZUqdRo36U7+gweDnsHx2KNLV3KDva2NjLSICIiMniP0tKwetlC7P5+KwrlbYr/CUDHZ//niwqAWgCuAJB29S1Zyhldew/Au116oISt3WuOUsHFyR52JaxkpUFERGRwsjIzsXPrRmz6di1SU1Nkhn4MoB6Am89+4mV32acA+JfMLADAwbEkWrTtgJa+HVG9Vh2oVC+/0a9SqVDW2QE21payUyEiItIbjUaDP65exk97d+PnfRFIf5SmjWkmAZjzvE+87OqrRtGtgHbayAgASjmXhleDt1CtpicqVH4DZVzLwdbOHnb2Dv8vy9Il7WFrwyKAiMjQWdvYwMamhKKxuTk5yMkxvaZwGRkZyMrMQEL8Pdy9cxtRf/yOC+fOIEWgd85r+BlFS//PvZfwqn32rih6brC85KSIiMhE+X3yGT4bNVbR2I3frsWKRfMkZ2SWEgE0BHD/RV/wqoftHwD4CEX3EIiIiMjwZQPogZdc/IFXFwAAcBxAbwD5EpIiIiIi7SkAMADAyVd94eu224tAUQchjUBSREREpD0aAJ8B2Pk6X1ycfrtrAAwGVwKIiIgMTQGKLv5rX3dAcRvub0DRfQWe2ENERGQYcgD0QdEb9dem5MSdPSjqEhivYCwRERHJcw9AGwDfF3eg0gfrTwJoACAMz2kvSERE5utWTFSkBjigZOyN6D9aAegkOSVTdRhFG/5euttfW9QAJgDIQtHmA37wgx/84Ac/ZkO58QaQv6F/ZP7n+yR0Zq6SWwBPKwQwD0BdAD8KxiIiIqKX24uia+5XKCoGFBMtAJ64DaALgA8AXJYUk4iIiIpcAtD1Px93ZASUVQA8sRtFrQfbAzgjOTYREZG5uYSiZnzeKHr3L43sAuCJQwCaomiZYh70tEGBiIjICCWj6JG+lgAaAdgOweX+59H28XrXAExE0dHCbQH4ouhxhTcBWGh5biIiImNQgKJ3+kdQ9AY6Ejpouqer83XzUXQs4c//+bMziooADwCeAGoAcAPg8J8POx3lRURE8okcIPcYQIqsRAxIFoCM/3wkArgBIPo/H5egh7/z/wENE3rih+ajUAAAAABJRU5ErkJggg==;" vertex="1" parent="1">
          <mxGeometry x="290" y="310" width="100" height="100" as="geometry" />
        </mxCell>
        <mxCell id="q-qKCyOHFfv3Y1E1018K-10" value="Requirement Gathering" style="text;html=1;align=center;verticalAlign=middle;resizable=0;points=[];autosize=1;strokeColor=none;fillColor=none;" vertex="1" parent="1">
          <mxGeometry x="265" y="90" width="150" height="30" as="geometry" />
        </mxCell>
        <mxCell id="q-qKCyOHFfv3Y1E1018K-11" value="Design" style="text;html=1;align=center;verticalAlign=middle;resizable=0;points=[];autosize=1;strokeColor=none;fillColor=none;" vertex="1" parent="1">
          <mxGeometry x="550" y="90" width="60" height="30" as="geometry" />
        </mxCell>
        <mxCell id="q-qKCyOHFfv3Y1E1018K-12" value="Coding" style="text;html=1;align=center;verticalAlign=middle;resizable=0;points=[];autosize=1;strokeColor=none;fillColor=none;" vertex="1" parent="1">
          <mxGeometry x="550" y="410" width="60" height="30" as="geometry" />
        </mxCell>
        <mxCell id="q-qKCyOHFfv3Y1E1018K-13" value="Testing" style="text;html=1;align=center;verticalAlign=middle;resizable=0;points=[];autosize=1;strokeColor=none;fillColor=none;" vertex="1" parent="1">
          <mxGeometry x="310" y="410" width="60" height="30" as="geometry" />
        </mxCell>
        <mxCell id="q-qKCyOHFfv3Y1E1018K-14" value="Methodology Used" style="text;html=1;align=center;verticalAlign=middle;resizable=0;points=[];autosize=1;strokeColor=none;fillColor=none;fontSize=26;fontStyle=1" vertex="1" parent="1">
          <mxGeometry x="340" y="40" width="240" height="40" as="geometry" />
        </mxCell>
      </root>
    </mxGraphModel>
  </diagram>
</mxfile>
